<svg width="100" height="48" fill="none" xmlns="http://www.w3.org/2000/svg"><mask id="a" style="mask-type:alpha" maskUnits="userSpaceOnUse" x="0" y="0" width="100" height="48"><rect width="100" height="48" rx="5" fill="#1E1E1E"/></mask><g mask="url(#a)"><path d="M17.48 14L8 33.974h11.349l1.407-3.184h3.216l1.407 3.184H37.87v-2.43l1.113 2.43h6.462l1.113-2.482v2.482h25.98l3.16-3.102 2.957 3.102L92 34l-9.51-9.957L92 14H78.863l-3.075 3.045L72.923 14H44.66l-2.427 5.155L39.75 14H28.424v2.348L27.164 14H17.48zm2.196 2.836h5.532l6.288 13.545V16.836h6.06l4.857 9.712 4.476-9.712h6.03V31.17H49.25l-.03-11.23-5.349 11.23H40.59l-5.38-11.23v11.23h-7.548l-1.431-3.213h-7.73l-1.429 3.21h-4.044l6.648-14.33zm36.6 0h14.919l4.563 4.693 4.71-4.693h4.563l-6.933 7.204 6.933 7.12h-4.77l-4.563-4.747-4.734 4.748H56.276V16.836zm-33.909 2.425l-2.547 5.725h5.091l-2.544-5.725zm37.593.543v2.617h8.14v2.916h-8.14v2.856h9.13l4.241-4.207-4.062-4.184H59.96v.002z" fill="#838383"/></g></svg>