<svg width="48" height="48" fill="none" xmlns="http://www.w3.org/2000/svg"><mask id="a" style="mask-type:alpha" maskUnits="userSpaceOnUse" x="0" y="0" width="48" height="48"><rect width="48" height="48" rx="5" fill="#300001"/></mask><g mask="url(#a)"><path d="M39 24.006C38.997 32.291 32.278 39.004 23.994 39 15.71 38.997 8.997 32.278 9 23.994 9.003 15.712 15.717 9 23.998 9 32.283 9 39 15.715 39 24v.006z" fill="#838383"/><path d="M26.734 21.09c0 1.917-3.009 1.694-3.967 1.694v-3.388c.958-.002 3.963-.306 3.963 1.693l.004.002zm.789 5.27c0 2.107-3.606 1.867-4.756 1.868v-3.735c1.15-.001 4.757-.332 4.757 1.866l-.001.001zm2.374-6.03c-.193-2.01-1.928-2.683-4.118-2.875v-2.787h-1.696v2.714c-.446 0-.902.009-1.355.018v-2.73h-1.696v2.786c-.367.007-.728.015-1.08.015v-.01h-2.34v1.815s1.253-.024 1.232 0c.474-.06.91.27.976.744v3.173c.06 0 .12.004.18.012h-.18v4.449a.598.598 0 01-.633.562h-.002c.021.02-1.233 0-1.233 0l-.337 2.027h2.208c.411 0 .815.007 1.212.01v2.819h1.694v-2.79c.465.01.916.014 1.355.014v2.777h1.694v-2.815c2.857-.163 4.85-.882 5.097-3.56.2-2.158-.815-3.12-2.433-3.509a2.625 2.625 0 001.455-2.857z" fill="#000"/></g></svg>