<svg width="48" height="48" fill="none" xmlns="http://www.w3.org/2000/svg"><mask id="a" style="mask-type:alpha" maskUnits="userSpaceOnUse" x="0" y="0" width="48" height="48"><rect width="48" height="48" rx="5" fill="#1E1E1E"/></mask><g mask="url(#a)"><path d="M15.466 12.933L24 8l8.534 4.933-3.2 1.733L24 11.6l-5.467 3.067-3.067-1.733zM32.4 19.067l-3.067-1.733L24 20.4l-5.467-3.067-3.067 1.733v3.6l5.334 3.067V32l3.067 1.867L26.934 32v-6.133l5.333-3.067v-3.734h.132zm0 9.866v-3.6L29.334 27.2v3.466l3.065-1.733zm2.267 1.2l-5.333 3.068V36.8l8.533-4.933V22l-3.201 2v6.134zM31.601 16l3.066 1.866v3.6l3.067-1.865V16l-3.067-1.866L31.601 16zM20.8 34.533v3.6l3.067 1.866 3.067-1.867v-3.599L23.867 36.4 20.8 34.533zm-5.334-5.6l3.067 1.733v-3.6l-3.067-1.865v3.732zM20.8 16l3.067 1.866 3.2-1.866L24 14.134 20.8 16zm-7.6 1.866L16.4 16l-3.2-1.866L10.133 16v3.6l3.067 1.866v-3.6h-.002zm0 6.134l-3.067-1.866V32l8.533 4.933v-3.6l-5.334-3.066V24H13.2z" fill="#838383"/></g></svg>