<svg width="48" height="48" fill="none" xmlns="http://www.w3.org/2000/svg"><mask id="a" style="mask-type:alpha" maskUnits="userSpaceOnUse" x="0" y="0" width="48" height="48"><rect width="48" height="48" rx="5" fill="#1E1E1E"/></mask><g mask="url(#a)"><path d="M24 39c8.284 0 15-6.716 15-15 0-8.284-6.716-15-15-15-8.284 0-15 6.716-15 15 0 8.284 6.716 15 15 15z" fill="#454545"/><path d="M24 38.52c8.019 0 14.52-6.501 14.52-14.52 0-8.019-6.501-14.52-14.52-14.52-8.019 0-14.52 6.501-14.52 14.52 0 8.019 6.501 14.52 14.52 14.52z" fill="#454545"/><path d="M24 38.214c7.85 0 14.214-6.364 14.214-14.214 0-7.85-6.364-14.214-14.214-14.214C16.15 9.786 9.786 16.15 9.786 24c0 7.85 6.364 14.214 14.214 14.214z" fill="#838383"/><path fill-rule="evenodd" clip-rule="evenodd" d="M15.558 22.398c-.085-.077-.174-.155-.257-.233a23.175 23.175 0 00-.252-.233l-.253-.24c-.041-.041-.085-.077-.126-.119l-.131-.114c-.335-.318-.672-.636-1.002-.954.342.313.677.624 1.02.942l.118.119c.041.041.085.078.126.119l.252.233c.085.078.168.155.253.24.085.084.168.162.253.24zm-4.446-.048s1.218.126 1.813.211c.55.078 2.274.343 2.274.343l-4.087-.554zm0 0c.342.03.684.066 1.027.102.174.017.342.036.51.053l.256.03.253.036 1.02.162.509.085c.168.03.335.061.51.09a12.021 12.021 0 01-.51-.065l-.51-.073-1.02-.15c-.084-.012-.167-.03-.252-.042l-.257-.03c-.168-.016-.342-.04-.51-.06a29.59 29.59 0 01-1.026-.138zm3.966.87s-1.301.331-1.74.457c-.432.12-1.74.517-1.74.517l3.48-.973z" fill="#CFB66C"/><path fill-rule="evenodd" clip-rule="evenodd" d="M15.078 23.22c-.29.086-.576.168-.87.246l-.868.233-.864.252-.432.12c-.144.04-.29.077-.437.118.143-.048.289-.097.432-.138l.432-.138c.289-.09.576-.175.864-.265.293-.073.582-.15.876-.22.28-.071.573-.142.867-.207zm-3.299 1.775a134.68 134.68 0 002.177-1.002c.192-.09.75-.288.75-.288l-2.927 1.29z" fill="#CFB66C"/><path fill-rule="evenodd" clip-rule="evenodd" d="M11.78 24.995c.125-.048.244-.107.366-.162l.359-.168.72-.347c.24-.114.474-.24.722-.347a4.79 4.79 0 01.378-.138l.192-.061c.066-.017.126-.037.192-.053-.24.114-.492.21-.733.322-.24.12-.485.216-.733.323l-.733.323c-.246.1-.486.206-.73.308zm.16.672s1.494-.876 2.009-1.158c.27-.15 1.14-.582 1.14-.582l-3.15 1.74z" fill="#CFB66C"/><path fill-rule="evenodd" clip-rule="evenodd" d="M11.94 25.668l.766-.474.384-.233.391-.228c.131-.078.257-.155.39-.228.064-.04.131-.073.2-.102l.204-.102c.27-.13.539-.264.823-.379-.258.163-.522.302-.787.445-.13.072-.264.138-.395.21-.132.074-.258.151-.391.222-.131.077-.258.15-.391.22l-.396.216-.798.433zm3.138-1.55s-.93.715-1.23.943c-.302.228-1.188.869-1.188.869l2.418-1.811z" fill="#CFB66C"/><path fill-rule="evenodd" clip-rule="evenodd" d="M20.413 29.874l-.476-.9.277-1.127 1.973-.762-.84-1.723.415-1.74.78-1.559 2.407-.378 1.77-1.687 3.82.288.75 4.085-1.444 5.144-.823 2.662-3.335.127-1.549-1.073-1.813-.758-1.912-.6z" fill="#E2CC85"/><path fill-rule="evenodd" clip-rule="evenodd" d="M26.262 29.845s-.461.21-1.248.162c-.227-.306-1.822-.449-1.822-.449s-.2-.06-.551.085c-.354.144-.69.126-1.002.204-.314.077-.624-.33-.864-.415a3.372 3.372 0 01-.559-.306l-.672-.066-1.35-.57-2.143-2.136-.583.912-.18 1.129.649 1.337 1.745 1.59 3.403.864 2.017-.594 2.527-1.068.633-.68z" fill="#F1D789"/><path fill-rule="evenodd" clip-rule="evenodd" d="M14.172 22.296l.432-1.308.515-.845 1.658-.138-.498 1.451-1.386 2.466.575 2.202-1.019.51-.313-.48-.252-1.103-.017-1.238.305-1.517z" fill="#F4ECB4"/><path fill-rule="evenodd" clip-rule="evenodd" d="M16.032 29.755l-.318-.444s-.085-.212-.037-.396c.048-.187.042-.199.017-.27-.024-.07-.228-.313-.216-.521.012-.211-.017-.282.139-.45.162-.162.114-.443.114-.443l.21.13.049-.072s.077.06.077.155c.017-.13-.053-.738.107-.876s.444.648.444.648l-.174-1.14-.45-1.17-.798-1.069-.048-1.177v-.102s-.367.564-.469 1.008c-.072.306.102.677.066 1.117-.03.437-.066.403.041.576.107.173.367.529.265.786-.09.221-.396.066-.396.066s-.06.18-.143.245a.542.542 0 00-.119-.24c-.005.041-.017.097-.017.097s-.053-.168-.107-.379c-.072-.281-.15-.652-.22-.852-.03.114-.102.462-.102.462l.04.534.2.733.192.48.187.587.162.395.131.3.114.678.551.582.294.131.213-.109z" fill="#F3E19D"/><path fill-rule="evenodd" clip-rule="evenodd" d="M14.461 21.228s-.396.672-.51 1.35c-.113.677-.216 1.393-.144 2.315.073.93.212 1.5.323 1.908.192.677.69 1.619.69 1.619l.017-.037a2.56 2.56 0 01-.2-.497c-.065-.257-.09-.563-.15-.701-.053-.139-.143-.258-.187-.428-.041-.162-.048-.42-.175-.611-.053-.078-.119-.282-.138-.486-.024-.306.012-.648-.017-.93-.053-.468-.09-.786-.041-1.031.048-.245.3-.942.456-1.495.102-.354.041-.653.228-.961.187-.306.301-.575.343-.762.048-.17-.495.747-.495.747z" fill="#F2E8B0"/><path fill-rule="evenodd" clip-rule="evenodd" d="M16.337 20.959s-.203.06-.3.167c-.098.102-.139.187-.27.36-.131.172-.138.313-.245.529-.107.21-.342.529-.372.643-.029.114-.077.648-.138.9-.053.253.06.563.06.563l.14-.029s0 .18.138.301c.138.12.162-.403.162-.403l.517-1.745.779-.529.085-.427-.556-.33z" fill="#F5EEC0"/><path fill-rule="evenodd" clip-rule="evenodd" d="M16.716 21.75s-.367.024-.546.155c-.073.054-.102.097-.18.163-.143.119-.289.228-.359.384-.078.155-.162.39-.22.835-.025.187-.025.359-.042.51-.024.203-.06.366-.041.48.024.233.264.354.288.618l.497-.252.469-1.847.995-.624-.563-.631-.299.208.001.001z" fill="#E6DB9D"/><path fill-rule="evenodd" clip-rule="evenodd" d="M14.09 34.189l.007-.056c.073-.623.085-1.097.138-1.393.078-.42.131-.576.12-.733-.018-.252-.037-.436-.013-.63.037-.258.289-.564.282-.775-.005-.168-.09-.277-.163-.379-.073-.101-.13-.186-.13-.186s.497-.343.492-1.721a.13.13 0 01.029.012l.245.696.168.204.643 1.2.827.803 1.224.822.767.835.077 2.226-1.002 1.3-.164.298a14.26 14.26 0 01-3.546-2.524z" fill="#E5CB7A"/><path fill-rule="evenodd" clip-rule="evenodd" d="M17.153 36.318s.017-.277.245-.456c.037.06.06.119.053.162.042-.073.33-.539.983-.66.653-.119.811-.595.811-.595l1.386-1.26 1.585-1.458 1.927-.677.9-.221s.018.065-.016.21c.167-.011.538-.096.924-.232.156-.06.302-.085.38-.005.113.107.13.36.137.51.187-.041.403-.221.576-.204.277.029.522.354.804.354.371 0 .539-.228.799-.408.155-.106.378-.24.504-.33.301-.22 3.486-1.194 3.486-1.194l1.116.073.18 1.199-.096 3.134-.036.035-5.076 2.651-7.037 1.079a14.113 14.113 0 01-4.499-1.547l-.036-.16z" fill="#D8C173"/><path fill-rule="evenodd" clip-rule="evenodd" d="M14.518 34.587c.1-.209.19-.384.205-.446.013.126.036.403.082.697a15.447 15.447 0 01-.287-.25z" fill="#F1D789"/><path fill-rule="evenodd" clip-rule="evenodd" d="M19.658 37.537l.91-.253.078.024s.04.025.04.107c.115-.066.212-.053.282-.097.037.078.073.335.233.366.168.037.348-.072.53-.21.18-.144.384-.323.538-.396.057.104.107.212.15.322.205-.162.56-.822 1.064-.81.146-.345.39-.64.701-.847.468-.318.762-.343 1.129-.314.145-.189.325-.35.529-.473.06.024.228.127.437.03.21-.098.449-.474.762-.522a.736.736 0 01.485.102s.912-.906 1.541-1.207c-.024-.073-.072-.347.666-.954.04.037.012.139.04.144.013 0 .193-.077.42-.252.282-.211.62-.432.823-.493.384-.114.792.119.792.119a.364.364 0 01.114-.053c.097-.018.167-.03.22-.049-.004.127.066.343 0 .53.076.042.157.077.24.102-.04.09-.13.317-.28.427.125.06.142.13.322.192a3.568 3.568 0 00-.245.384c-.054.114-.246.587-.33.767-.09.18-.212.51-.27.576-.058.066-.27.347-.432.485.144-.053.733-.233.983-.301l-.814 1.207a14.243 14.243 0 01-11.66 1.35l.002-.003z" fill="#E0CD81"/><path fill-rule="evenodd" clip-rule="evenodd" d="M16.776 21.684s-.211 0-.252.03c-.042.029.21.09.288.119.078.029.246.162.29.27.04.101 1.516.696 1.516.696l1.044-.054.36-.497-.685-.6.48-1.415-.636.102-1.529.912-.767.294-.109.143z" fill="#DFC57C"/><path fill-rule="evenodd" clip-rule="evenodd" d="M19.068 22.153a.163.163 0 00.144.078c.216 0 .415.053.497.162.139.175.522.733.522.733l.918.33.059-1.08-1.002-.697-1.141.42v.054h.003z" fill="#E5CC7C"/><path fill-rule="evenodd" clip-rule="evenodd" d="M18.888 22.553s.167.012.378-.065c.212-.078.559-.245.71-.18.21.09.167.372.395.624.138.156.39.15.534.318.143.168.636.09.636.09l.187 1.008-.75.961-.246 1.194h-1.014l-.926-.367-.456-1.104.228-1.116.324-1.363z" fill="#D2C281"/><path fill-rule="evenodd" clip-rule="evenodd" d="M20.85 22.602a.272.272 0 00.077.012c-.029.024-.09.078-.066.216.025.138.102.313.037.42a.526.526 0 01.114.199c.041.119.053.228.323.245a.564.564 0 00-.107.085s.187.163.282.313c.097-.004.354-.084.354-.084l.053.036.114-.048s-.106-.04-.029-.3c.073-.229.139-.217.144-.234.006-.017.054-.257.054-.354a4.3 4.3 0 00.065-.51l-.077-.847-.437-.264-.355-.343-.335.631-.221.22-.017.546.026.06z" fill="#E2C270"/><path fill-rule="evenodd" clip-rule="evenodd" d="M21.9 21.893s.078.221.107.39a.379.379 0 00.017-.101s.061.335.073.473c.024-.005.048-.012.053.012.006.025.061.294.048.445.101-.167.241-.307.408-.408.097-.06.211-.126.33-.131.187-.005.323.119.546.119.54 0 1.027-.396 1.386-.517.265-.09.493-.156.653-.301a1.71 1.71 0 00.342-.427c.168-.288.343-.54.518-.57-.08.014-.16.02-.24.016 0 0 .053-.053.144-.126.09-.073.199-.163.354-.163.277 0 .415.041.57.041.155-.004.245-.04.245-.04s.163.113.53.113c.366.005.611.037.803.054.192.017.835-.053 1.02-.048.12.005.238.034.347.085l-.595-1.728-2.137-1.867-1.271.9-1.957 1.956-1.893.702-.396.444v.677H21.9z" fill="#CCB360"/><path fill-rule="evenodd" clip-rule="evenodd" d="M26.148 20.903s.054-.053.143-.126c.09-.073.2-.163.355-.163.276 0 .415.041.57.041.155-.004.245-.04.245-.04s.163.113.53.113c.366.005.611.036.803.053.192.017.835-.053 1.02-.048a.9.9 0 01.346.085l-.27-.779-.312-.595-.893-.978s-1.072-.63-1.08-.636a14.712 14.712 0 00-.372-.101l-.97.587-.882 2.279-.017.48.57.27c.144-.24.302-.432.45-.457-.134.015-.236.015-.236.015z" fill="#D5B457"/><path fill-rule="evenodd" clip-rule="evenodd" d="M26.136 21.066c-.085.004-.155-.013-.175-.073-.073-.204-.13-.233-.192-.233-.06 0-.143.13-.192.143-.049.012-.107-.15-.107-.15l-.053-.025s-.313.204-.534.444c-.22.24-.582.648-.745.721-.163.073-.72.097-.912.138-.191.042-.403.18-.432.212-.03.031.085.065.102.097.017.029-.187.017-.204.048-.012.024.048.162.078.232a.396.396 0 01.167-.04c.187-.005.323.118.546.118.54 0 1.027-.395 1.386-.517.265-.09.493-.155.653-.3.078-.066.216-.212.342-.428.093-.148.183-.286.272-.388z" fill="#D2B257"/><path fill-rule="evenodd" clip-rule="evenodd" d="M18.408 33.078s-.048-.18-.493-.643c-.126-.131-.204-.24-.289-.318-.21-.2-.335-.253-.485-.367-.33-.245-.69-.245-.966-.546-.277-.3-.599-.876-.823-1.464-.22-.587-.282-.774-.282-.79 0-.018.061-.132.139-.115.077.017.077.167.097.204.039.06.083.115.131.167.114.131.277.288.36.522-.018-.199-.086-.42-.086-.42s.427.27.791.551c.367.282.517.379.624.558.107.18.36.653.48.792.121.138 1.776.66 1.776.66l.788.587.39.857-.305.48-.588.126-.954-.427-.305-.414z" fill="#D2B159"/><path fill-rule="evenodd" clip-rule="evenodd" d="M16.289 30.126s.199.318.684.62c.437.264 1.129.504 1.745.647.355.085.71.15 1.027.156.857.012 1.447-.233 2.177-.314.396-.04.881-.072 1.386-.191.648-.156 1.032-.33 1.554-.576.378-.175.726-.306 1.007-.474.396-.233.684-.492 1.02-.57-.042.114-.085.318-.416.53.175-.006.415-.018.415-.018s-.233.138-.643.45c-.252.191-.587.516-.93.732-.22.139-.46.24-.618.323-.384.211-.54.318-.792.576.09-.005.098 0 .098 0s-.319.041-.547.162c-.048 0-.13-.016-.276.025-.114.036-.265.119-.42.162-.221.066-.294.037-.294.037l.037.073s-.288-.005-.384.005c.017.004.012.012.012.012a.146.146 0 00-.048.017.502.502 0 01-.15.065c-.03.005-.054.005-.09.012.012.03.106.192.15.288-.036.025-.583.437-.583.437a.448.448 0 01.042.085c.017.053.024.131.04.168.042.072.066.085.066.085s-.065.012-.18.04c-.096.025-.215.066-.383.09a1.64 1.64 0 01-.156.013c.025.053.131.257-.065.492-.197.236-.258.27-.318.42a.65.65 0 00-.097-.06c-.066-.03-.156-.073-.187-.132a1.56 1.56 0 01-.073.229c-.06.162-.15.323-.167.444-.066-.073-.187-.216-.355-.187-.167.029-.3.257-.33.323 0-.041-.029-.073-.036-.025a1.844 1.844 0 01-.612 1.064c-.005-.115-.005-.367-.017-.45-.048.048-.107.12-.456.27-.342.15-.288.3-.288.3s-.03-.24.155-.492c.187-.252.301-.371.301-.39a.108.108 0 00-.024-.054c-.024-.024-.073-.053-.073-.073.03-.012.318-.15.301-.437a.774.774 0 00-.204-.485c-.012-.012.114-.102.097-.131-.012-.017-.167-.131-.187-.192a.557.557 0 01.025-.107c.017-.053.029-.09.024-.126a1.015 1.015 0 00-.097-.245c.017.005.138 0 .138 0s-.097-.156-.114-.228c-.017-.073-.053-.265-.073-.301.042.005.143.012.143 0 .006-.037-.09-.097-.047-.144a.244.244 0 01.138.097c-.03-.078-.078-.228-.18-.289a.441.441 0 01.354.024c.144.085.192.204.192.204s.085.066.217.163c.15.119.342.288.648.407.065.037.233.037.354.013a.545.545 0 00.15-.061.283.283 0 01.054-.024 1.154 1.154 0 00-.09-.15c.041 0 .09.004.09.004s.029-.066-.102-.192c.03-.03.066-.048.066-.097-.042-.005-.114-.066-.132-.09.025-.017.061-.073.102-.09-.036-.029-.126-.15-.167-.162a.76.76 0 00.114-.054s-.204-.053-.27-.097c-.065-.048-.162-.13-.22-.155-.061-.024-.168-.036-.211-.085.04.012.106 0 .155 0 .036 0 .053.005.065.005-.004-.017-.004-.054.09-.066a.445.445 0 00.131-.041s-.09-.005-.192-.102c-.102-.097-.187-.175-.245-.187-.06-.012-.174.041-.245.036-.097-.012-.138-.06-.138-.06s-.323.029-1.039-.408c-.62-.378-.889-.713-.889-.713a1.06 1.06 0 01-.167-.078c-.233-.121-.556-.374-.546-.704l-.001.002z" fill="#C2A44D"/><path fill-rule="evenodd" clip-rule="evenodd" d="M25.218 15.558a.315.315 0 01.144.098c.114.13.187.378-.072.643.102.036.144.048.233.036-.09.107-.294.335-.306.534-.012.163.09.211.09.211s-.156.18-.163.48c.073-.082.154-.159.24-.228.18-.143.427-.306.595-.408a.343.343 0 00.017.127s.313-.258.576-.143c.119.053.065.22.065.22s.163-.06.277.054c.114.114.275.408.358.522.036.054.131.155.228.313.132.221.243.454.33.697.005-.127.037-.323.396-.2.36.127.767.392 1.109.913.342.52.427 1.11.6 1.333.174.216.354.575.366.726.012.15-.053.636.306 1.949.102-.408.257-1.313.257-1.313l.085-.799.097-2.47-2.58-2.144-2.017-1.464-1.313.126.082.187z" fill="#CAA13E"/><path fill-rule="evenodd" clip-rule="evenodd" d="M30.012 19.235s-.036-.24-.643-.648c-.607-.403-1.08-.403-1.517-.745-.335-.27-.684-.888-.912-1.092-.22-.202-.257-.784-.257-.784l.745-.624 1.108-1.602.937-1.031.449.623.624.733.347 1.471.126 2.153-1.008 1.546h.001z" fill="#B59544"/><path fill-rule="evenodd" clip-rule="evenodd" d="M30.762 21.816a2.735 2.735 0 00-.119-.966c-.16-.498-.51-1.381-.672-1.712-.065-.366-.017-.396.054-.437.07-.041.335-.192.48-.72.145-.53.594-.547.594-.547l.277-.204.42 1.051.366.95.114.725.085.62-.199 1.307-.982.889-.418-.956z" fill="#C89D3A"/><path fill-rule="evenodd" clip-rule="evenodd" d="M17.046 36.398v-.027a.209.209 0 00.053-.048c.017-.024.03-.053.042-.06a.458.458 0 01.199-.037c.06.012.22.078.306.073.174-.005.378-.139.701-.078.486.09.6.42.881.607.192.131.391.073.42.073h.066c.012 0 .102-.102.15-.097.097.005.107.085.168.09.143.017.42-.073.558-.037a.268.268 0 01.109.444c-.15.139-.294.27-.323.384.037.029.073.059.107.09a14.132 14.132 0 01-3.437-1.375v-.002z" fill="#CEB052"/><path fill-rule="evenodd" clip-rule="evenodd" d="M29.97 31.549s.38-.505.51-.755c.132-.258-.415-3.522-.415-3.522l1.098-3.595-.03-1.17s.054-1.08.18-1.548c.15.27.62.595.721.767.048-.33.211-1.027.187-1.77.09.139.306 1.53.306 1.53l.216.936.281.996.313 1.05.187.727.107.174.09.306.085.33.245.774.144.636.114 1.153c.025.088.043.179.053.27.005.126-.017.199-.017.22 0 .023.042.277.025.47-.024.191-.024.341-.175.48-.15.137-.245.96-.245.96l-.27-.18s.054-.245-.072-.468a.473.473 0 00-.51-.233c-.138.03-.415.073-.505.15-.085.078-.294.319-.485.428-.24.144-.631.155-.84.204-.211.048-.444.192-.69.359a3.852 3.852 0 01-.606.32h-.001z" fill="#CCA847"/><path fill-rule="evenodd" clip-rule="evenodd" d="M29.97 36.852l.048.027a14.256 14.256 0 004.544-3.368 23.328 23.328 0 00-.052-1.18c-.041-.397-.012-.8-.024-1.032a15.002 15.002 0 00-.204-1.428c-.066-.245-.192-.366-.211-.366-.017.005-.12.461-.12.576 0 .114-.024.39-.024.461-.017-.005-.024-.048-.024-.066-.024.061-.053.168-.066.18-.012.012.017-.102 0-.126-.016-.024-.048-.012-.04-.073a.689.689 0 01.016-.107s-.073.107-.126.379c-.053.27-.053.277-.073.3-.017.03-.114.127-.119.164-.005.065.09.13.097.167.005.06-.084.342-.114.48-.029.138-.017.408-.048.546-.024.126-.048.2-.13.252.06.013.118.03.118.03s.085.359-.13.665c-.078.106-.098.155-.18.252-.163.18-.29.384-.301.517a.868.868 0 01-.018-.119s-.252.294-.359.461c-.138.216-.33.204-.384.258-.054.053-.065.15-.048.228-.048.012-.138.029-.199.216a.455.455 0 01-.216.257c-.114.065-.252.085-.323.102.061.017.085.017.114.036-.036.06-.203.156-.39.277a.817.817 0 00-.323.39c-.048.103-.119.168-.233.18.048.03.119.098.155.12-.053.011-.144.011-.305.15-.17.14-.229.182-.306.194h-.001z" fill="#C39D3C"/><path fill-rule="evenodd" clip-rule="evenodd" d="M26.594 37.977c.093-.065.193-.119.3-.16.378-.15.778-.179.936-.227.15-.048.27-.114.456-.15l-.013.12a14.14 14.14 0 01-1.68.417z" fill="#D2BA6B"/><path fill-rule="evenodd" clip-rule="evenodd" d="M33.576 28.02s-.078.42-.216.684a8.962 8.962 0 00-.288.631 1.06 1.06 0 01.03-.245c-.175.102-.6.347-.72.456-.115.102-.307.282-.355.367.114-.335.233-.636.252-.775-.174.127-.99.799-1.415 1.243l-1.323 1.07a4.57 4.57 0 01-.47.221c-.229.097-.498.18-.697.257.053-.143.138-.27.257-.39.127-.12.505-.53.563-.72.054-.2.066-.319-.005-.486-.065.017-.215.024-.317.053-.102.03-.212.139-.212.139s.078-.445.245-.864c-.126.004-.342.04-.342.04s.301-.504.816-.856a2.652 2.652 0 00-.46.143c-.302.126-.632.313-.877.415.138-.192 1.11-1.577 1.687-2.869.576-1.289.791-1.619.917-2.31.066-.343.048-.848.066-1.301.017-.45.073-.852.036-1.122.15.187.714.714.733 1.891.017 1.177-.539 2.767-1.128 3.624.144.041.517.09.9-.576.383-.666.379-.852.517-1.129.017.139.012.187.012.187s.559-.677.823-1.53c.053.367.211.69-.036 1.363-.221.606-.51.755-.51.755s.143-.025.354-.151c.037.09.03.192.09.228.06.036.143.097.155.155.066-.097.168-.22.2-.313-.025.192-.042 1.032.048 1.46.187-.018.378-.03.51-.367-.09.33-.09.529-.03.81.1-.068.19-.189.19-.189z" fill="#C0993A"/><path fill-rule="evenodd" clip-rule="evenodd" d="M27.27 14.64s-.187.078-.505.078c-.277 0-.2-.106-.631-.106-.665 0-2.988.384-3.396.378-.265-.005.893.114.893.114l2.959.042.595-.049.22-.45-.136-.006z" fill="#A88F33"/><path fill-rule="evenodd" clip-rule="evenodd" d="M19.597 20.425s-.379.289-.539.51c-.16.22-.245.366-.427.546a.373.373 0 00.126-.017s0 .048-.029.06a.17.17 0 01.138.048c-.053.03-.199.175-.085.348.085.13.265.143.265.143s-.041.119.131.107c.372-.017.787-.18.978-.139.192.048.301.066.437.301.144.233.27.27.27.27s.085-.216.065-.54a1.59 1.59 0 00.114-.545l-.126-.93-.55-.697-.714.396-.054.138z" fill="#E3C571"/><path fill-rule="evenodd" clip-rule="evenodd" d="M20.274 20.286s.054.127.277.139c-.024.053-.024.06-.017.102l.012.101a.227.227 0 00.066-.047c.012.053-.012.138 0 .198.007.038.02.073.036.107a.217.217 0 01.012-.024c.005-.012.048.131.168.24a.1.1 0 01.012-.048c.002.03.012.06.029.085a.087.087 0 01-.024-.017s.012.384.077.583a.269.269 0 00.03-.042c0-.012-.005.107-.018.192-.017.085-.004.204-.004.204a.636.636 0 01.143-.085c.072-.029.192-.119.264-.318.043-.113.075-.229.098-.347.023.045.04.094.048.144.004.06.119.03.119.03l.024-.265.144-.6.13-.371.632-.983 1.14-.878.995.228.84-1.14-1.447-.87-1.369.143-1.242 1.721-.995 1.561-.18.257z" fill="#D8B65B"/><path fill-rule="evenodd" clip-rule="evenodd" d="M27.444 17.796s-.085.017-.33.144-.415.168-.51.354c-.094.187-.102.335-.102.335s.168-.072.265-.097c.102-.024.216-.017.204.025a.283.283 0 01-.048.077s.192-.005.187.09a.5.5 0 01-.073.245c-.036.048-.187.12-.204.175-.041.114.017.119-.005.211-.017.09-.097.265-.359.57-.27.306-.384.523-.384.523s-.13-.246-.199-.457c-.048.024-.306.168-.306.168l-.597-2.08.012-.139s.054-.065.066-.187c-.09-.029-.102-.053-.221-.167-.12-.114-.216-.253-.415-.347-.03-.054-.066-.126-.211-.156a3.765 3.765 0 01-.233-.053s.077-.03.114-.09c-.09.012-.163.041-.36.037-.198-.005-.22-.012-.33.004-.108.017-.24.066-.288-.102-.054-.04-.168-.004-.265.139-.097.143-.13.257-.318.313a.652.652 0 01-.085.233c-.053.09-.138.18-.252.313-.18.211-.15.558-.437.823-.289.264.048-.733.048-.733l.46-1.104 1.314-1.284 2.039-.139.199 1.057.995.342.629.958z" fill="#D3AE4D"/><path fill-rule="evenodd" clip-rule="evenodd" d="M27.767 18.03l-.857-1.236-.6-.462s-.426-.786-.456-.81c-.024-.017-.427-.06-.684-.078l.048.12a.315.315 0 01.144.096c.114.131.187.379-.073.643.102.037.144.049.233.037-.09.107-.293.335-.306.534-.012.163.09.21.09.21s-.155.18-.163.48a2.06 2.06 0 01.24-.227c.18-.144.428-.306.595-.408a.343.343 0 00.017.126s.313-.257.576-.143c.12.053.066.22.066.22s.162-.06.276.054c.114.114.277.408.36.522.036.054.13.156.228.313.132.221.243.454.33.697.005-.097.024-.233.192-.233l-.255-.456h-.001z" fill="#CAA13E"/><path fill-rule="evenodd" clip-rule="evenodd" d="M14.922 21.539s-.06-.15 0-.444c.061-.294.156-.432.187-.864.032-.432.313-.971.313-.971l.78-.354.55.15.163.738-.697.384s-.036.162-.233.293c-.196.131-.468.233-.534.367a1.06 1.06 0 00-.084.257s-.2-.04-.318.09c-.127.134-.122.253-.127.355v-.001z" fill="#F4EFC8"/><path fill-rule="evenodd" clip-rule="evenodd" d="M16.495 21.342s-.065.042-.114.144c-.048-.077-.163-.539-.167-.954-.005-.415-.03-.517.066-.66.096-.144.473-.294.419-.552-.053-.245-.277-.347-.551-.277-.192.048-.335.457-.534.66-.15.156-.33.132-.379.217-.065.114-.004.228-.024.3a1.453 1.453 0 01-.175.314c-.22.318-.594.767-.643 1.17.017-.229.005-.233.066-.486l-.037-.06.24-.787.156-.648.347-1.085.611-1.11.595-.664.619.041.073.93.354 1.745.745.917-1.194.804-.473.041z" fill="#EBCC73"/><path fill-rule="evenodd" clip-rule="evenodd" d="M16.867 21.672s-.102.024-.139.005c-.036-.02-.072-.041-.06-.066.012-.024.077-.065.077-.085a.068.068 0 00-.06-.072c-.056-.008-.073.029-.073.029s-.054-.041-.097-.048a.67.67 0 01.077-.005.756.756 0 00-.21-.06c.06-.037.179-.144.256-.144.078 0 .127-.012.114-.053-.012-.042-.072-.102-.138-.127.024-.029.042-.072-.017-.192-.06-.118-.036-.199-.017-.228.017-.036.078-.102.107-.143.03-.041.053-.097.102-.126a1.27 1.27 0 01.18-.078c.085-.029.155-.065.203-.029.054.037.03.085.03.085s.167-.06.318.017c.15.073.517.12.517.12l.131.264-.869.745-.36.18-.072.011z" fill="#E5C66B"/><path fill-rule="evenodd" clip-rule="evenodd" d="M18.073 20.454s-.27.18-.33.245c.036.005.097.03.072.066-.029.036-.204.162-.3.281-.103.12-.2.27-.234.343-.036.065-.313.257-.407.28.199 0 .6-.244.75-.244-.005.073.04.155.126.162.085.008.33.054.66-.15.33-.2.221-.347.36-.444.264-.175.37-.33.516-.427a.94.94 0 01.221-.12s.005-.072.048-.065a.065.065 0 01.054.041s.252-.18.576-.228a.034.034 0 01-.017-.017s.024-.012.029-.024c0 0 .017-.024.029-.012s.029.102.053.138c.054-.024.156-.252.156-.252l.245-.702v-.64l-.192.036-1.44.611-.874.906-.102.216z" fill="#E6BD62"/><path fill-rule="evenodd" clip-rule="evenodd" d="M22.218 17.31a.815.815 0 00.222-.09c-.03.079-.03.163-.155.348-.127.184-.131.211-.233.403-.102.199-.114.485-.212.611a.445.445 0 01.139-.04s-.097.084-.139.174c-.04.09-.114.277-.293.39-.18.115-.408.188-.653.457-.245.265-.498.6-.624.72.066-.114.155-.342.18-.492.024-.15-.005-.33.036-.53.041-.198.041-.342.24-.69.199-.346.539-1.553.539-1.553l.733-.233.22.525z" fill="#B6933F"/><path fill-rule="evenodd" clip-rule="evenodd" d="M21.69 16.867s-.222.317-.282.6c-.06.28-.005.256-.042.395a.517.517 0 000 .257.913.913 0 01.306-.301c.209-.126.379-.216.48-.323.102-.114.187-.3.408-.444-.09-.012-.216-.053-.24-.048.09-.102.359-.257.63-.444.27-.192.253-.27.69-.461-.143.024-.211-.012-.33 0 .048-.102.216-.15.384-.318.168-.167-.107-.415-.107-.415l-1.28.774-.619.728h.001z" fill="#C49937"/><path fill-rule="evenodd" clip-rule="evenodd" d="M18.216 16.289l.03-.233.366-.587.383-1.032v-1.41l-.029-.816.06-.534.047-.17.049-.065.313.162.432.588.04 1.133-.42 1.79-1.198 1.307-.073-.133z" fill="#DFC068"/><path fill-rule="evenodd" clip-rule="evenodd" d="M19.17 11.376s-.192.005-.233.804c-.041.798-.06 1.218-.09 1.614-.029.396-.097.636-.131.869-.034.233-.053.55-.163.745-.047.09-.15.371-.39.582-.27.233-.672.396-.733.408-.107.024-.648.078-.87.2-.077.04-.21.09-.358.228a4.583 4.583 0 00-.967 1.308c-.432.852-.864 3.257-.864 3.257l.098-.163s.012-.216.228-.594c.21-.379.15-.804.444-1.53.114-.276.257-.635.432-.941.277-.498.611-.925.949-1.158a2.986 2.986 0 011.158-.461l.653-.432s.114-.22.264-.473c.211-.355.48-.75.539-1.325.09-.853-.126-1.41-.114-1.916.012-.504.017-.876.119-.966.102-.09.03-.056.03-.056h-.001z" fill="#A88F33"/><path fill-rule="evenodd" clip-rule="evenodd" d="M19.17 15.187s.288-.709.42-1.338c.024-.126.073-.252.085-.354.06-.595.077-.84 0-1.165-.06-.24-.294-.456-.415-.624-.12-.175-.175-.24-.15-.277a.269.269 0 01.21-.09.723.723 0 01.517.24c.187.216.335.95.335.95l.156.967.396 1.218-1.554.474v-.001z" fill="#C99E3D"/><path fill-rule="evenodd" clip-rule="evenodd" d="M21.876 14.449s-.053.024-.15 0a.217.217 0 01-.097.204c-.102-.041-1.056.041-1.056.041s-.445-.078-.583-.665c-.097-.39.073-.93.017-1.284-.085-.522-.204-.624-.216-.786-.012-.163-.024-.204-.024-.306-.054-.012-.085-.03-.139-.03-.012-.047.012-.09-.04-.174.028.012.227.036.46.257.192.18.192.245.221.282.037.036.33.288.457.539.126.25.371 1.05.427 1.182.017.053.053.106.144.228.14.175.347.464.58.512z" fill="#B58634"/><path fill-rule="evenodd" clip-rule="evenodd" d="M20.303 12c.148.238.28.484.396.738.143.323.228.587.408.803-.097-.281-.27-.835-.372-1.031-.114-.208-.346-.432-.431-.51z" fill="#A88F33"/><path fill-rule="evenodd" clip-rule="evenodd" d="M18.653 15.99s-.245.061-.701.301a7.436 7.436 0 01-.433.204 7.513 7.513 0 01-1.05.396c.024.03.036.041.036.041s0 .12.065.187c-.036.036-.521.366-.378 1.47.097-.035.21-.084.228-.084.03.005.036.085.073.085.036 0 .155-.048.281-.211-.005.065-.077.725.313 1.17.073-.085.258-.367.258-.367l.005-.09s.016-.313.118-.6c.103-.286.302-.497.302-.497l1.038-1.483-.155-.522z" fill="#E6C367"/><path fill-rule="evenodd" clip-rule="evenodd" d="M17.682 18.168a.574.574 0 01-.155.078.6.6 0 01.102-.474c.167-.245.534-.563.636-.816.065-.162.036-.57.619-1.092.582-.522.81-.701.81-.701l.942-.474 1.158.457-.576 2.254-.446 1.056-1.776-.335-1.314.047z" fill="#DCBA5A"/><path fill-rule="evenodd" clip-rule="evenodd" d="M18.36 17.556l.221-.277v-.196s.245-.066.51-.335c.264-.27.63-.787.953-.755.323.036.355.701.367.888.012.187.053.612.119.84.073.228-.786 1.092-.786 1.092l-.584.444-.8-1.701z" fill="#E9CE77"/><path fill-rule="evenodd" clip-rule="evenodd" d="M19.044 19.86s.18-.282.048-.343c.077-.175.22-.36.22-.36s.102-.252.432-.562c.33-.311.535-.517.588-.726a1.91 1.91 0 00.053-.415.79.79 0 00.114.078c.054.024.306.232.27.652-.036.42-.192.595-.192.595s-.15.15-.257.228c-.114.078-.155.168-.347.175a.228.228 0 01.065-.036s-.199-.025-.306.072c-.107.097-.334.396-.448.486l-.24.155z" fill="#CDAE50"/><path fill-rule="evenodd" clip-rule="evenodd" d="M27.114 15.138a2.922 2.922 0 00-.893-.175c-.51-.016-1.255.013-1.986.017-.786.005-1.5-.269-2.49-.318-.162-.097-.576-.521-1.866.38.077-.006.937-.2 1.235.174.301.371.216 1.002.175 1.153-.078.335-.33.823-.432 1.165-.102.342-.078.522-.15.762-.073.24-.234.36-.139.636.126-.078.192-.078.403-.551.21-.473.167-.81.517-1.211.342-.403.912-.954 1.129-1.093.216-.138 1.936-1.031 3.738-.18.434-.045.76-.759.76-.759z" fill="#D2A83E"/><path fill-rule="evenodd" clip-rule="evenodd" d="M20.604 14.808a.228.228 0 00-.012-.053.394.394 0 00-.065-.098s-.428-.077-.643-.053c-.38.041-.721.51-.882.75-.16.24-.359.612-.575.803a.08.08 0 00-.012-.053s.012.017-.012.041c-.024.025-.024.037-.012.048l.036.037c.012 0 .347-.15.804-.576.485-.444.856-.672 1.05-.75.104-.044.213-.076.323-.096z" fill="#C29637"/><path fill-rule="evenodd" clip-rule="evenodd" d="M28.89 12.983s-.077.097-.174.204c-.216.228-.498.485-.738.75-.228.252-.485.449-.774.78-.29.33-.624.696-.709.802a.792.792 0 00-.138.372c-.041-.03-.09-.06-.09-.06.02.037.045.073.073.106.06.085.155.192.204.257.06.083.102.177.126.277.029.005.216.041.449-.342.233-.384.539-.804.539-.804l.485-.72.306-.612.384-.685.058-.325z" fill="#AC8132"/><path fill-rule="evenodd" clip-rule="evenodd" d="M29.389 12.493s-.294.24-.408.384c-.115.144-.384.522-.384.522l.097-.012.492-.437.192-.342.01-.114v-.001z" fill="#A88F33"/><path fill-rule="evenodd" clip-rule="evenodd" d="M29.299 31.782s-.005-.2.107-.318c.114-.12.402-.294.684-.95.282-.655.313-.803.313-.803s-.505.432-.816.534c.073-.15.114-.257.15-.335-.04-.036-.215-.078-.232-.097.097-.097.15-.335.347-.493.252-.192.713-.522 1.072-.816.358-.294 1.063-.978 1.153-1.177a.44.44 0 01.065.126s-.354.462-.539.755c-.162.253-.15.396-.15.396l.335-.144s.097.359-.343.905c.192-.072.27-.029.38-.09-.18.115-.428.27-.661.697-.228.427-.539.925-1.063 1.235-.51.328-.804.573-.804.573l.002.002z" fill="#A67A2E"/><path fill-rule="evenodd" clip-rule="evenodd" d="M27.983 15.39s-.2.416-.228.739c-.005.077-.024.138-.024.228-.005.289.016.611-.049.762-.024-.06-.036-.102-.06-.126-.037.102-.102.42-.156.539a2.534 2.534 0 01-.072-.666c.005-.317.012-.378.012-.444-.012.097-.078.229-.102.306-.037-.065-.078-.15-.127-.22-.029.047-.065.118-.096.155a2.188 2.188 0 01-.025-.216c-.005-.127-.012-.29-.005-.323.013-.066.115-.323.33-.558.258-.282.523-.823.6-.99.078-.168.408-.865.408-.865h.252l-.366.835s-.221.457-.335.624c-.114.168-.355.648-.462.835.078-.102.144-.155.221-.252.076-.068.284-.362.284-.362z" fill="#8C6228"/><path fill-rule="evenodd" clip-rule="evenodd" d="M29.393 12.461a1.043 1.043 0 01-.192.347c-.15.18-.473.42-.63.612-.145.187-.433.697-.302 1.3.048-.13.139-.39.379-.684.24-.293.497-.63.624-.893a1.5 1.5 0 00.143-.473l.048-.06-.03-.14-.04-.009z" fill="#CBA94C"/><path fill-rule="evenodd" clip-rule="evenodd" d="M34.308 28.56s-.097-.264-.126-.504c-.029-.24.048-.288-.041-.563-.054-.168-.15-.144-.175-.168-.024-.023-.041-.276-.036-.415a1.55 1.55 0 00-.03-.395c-.036-.03-.06-.054-.114-.233-.06-.18-.09-.27-.118-.323-.03-.053-.115-.102-.115-.155 0-.107.098-.163.098-.192-.005-.061-.078-.012-.098-.03-.024-.029.061-.203.03-.228-.012-.012-.097.09-.12.061-.024-.03-.053-.318-.096-.51-.042-.187-.085-.322-.09-.378-.005-.054-.335-.995-.415-1.224a5.795 5.795 0 01-.163-.587c-.024-.114-.041-.347-.053-.323-.013.024-.005.143-.025.139-.017-.005-.077-.42-.097-.486-.017-.066-.119-.288-.144-.449-.024-.163-.077-.587-.114-.876-.036-.289-.053-.408-.053-.48a2.993 2.993 0 00-.03-.53 4.938 4.938 0 00-.227-.892c-.163-.408-.595-1.452-.672-1.712 0-.065.085-.029.085-.029s.21.53.366.937c.15.408.294.767.33.804.03.036.258.436.36 1.092.101.655.138 1.26.198 1.662.03.192.054.396.114.6.066.22.168.449.301.798.115.294.2.54.246.75.053.27.053.474.084.607.03.114.073.343.175.672.102.33.253.755.355 1.02.199.529.288.97.318 1.206.026.243.116 1.083.092 1.335z" fill="#A88F33"/><path fill-rule="evenodd" clip-rule="evenodd" d="M29.405 12.432l-.012.029s.037.012.03.06c0 .067-.004.134-.013.2-.012.085-.036.15-.04.204 0 .114.016.245-.145.57-.048.09-.077.167-.102.22a.656.656 0 01-.126.212c.085-.048.39-.24.546-.211-.107.06-.27.18-.371.335a.835.835 0 00.288 0c.27-.041.57-.139.835-.12.289.018.174-.346.174-.346l-.333-.733-.63-.444-.1.024z" fill="#BE9C44"/><path fill-rule="evenodd" clip-rule="evenodd" d="M31.051 17.922s-.281-.281-.396-1.248c-.114-.97-.09-2.4-.09-2.4l-.228-.558s-.047-.371-.167-.51c-.12-.138-.354-.37-.461-.485-.107-.114-.228-.27-.301-.294.036-.06.199-.403.823-.407.623-.005.816.342.88.468.066.126.36.672.47 1.712.101 1.039.106 1.117.089 1.476-.012.199-.078.66-.192 1.153-.104.417-.218.883-.427 1.094z" fill="#A17C34"/><path fill-rule="evenodd" clip-rule="evenodd" d="M30.168 18.75a.476.476 0 00.27-.06c.09-.006.414.036.664-.282.017.072.061.27-.053.444.06-.06.15-.085.163-.102.004.09.09.366-.27 1.039.097-.107.211-.102.313-.114.005.126.073.55-.107.779-.118.155-.313.107-.313.107a.598.598 0 000-.102c-.005-.066-.029-.131-.012-.175a.873.873 0 01-.252-.175c-.211-.199-.486-.539-.505-.791a.312.312 0 01.228-.342.268.268 0 01-.053-.066c-.012-.041-.025-.107-.073-.16z" fill="#8C6228"/><path fill-rule="evenodd" clip-rule="evenodd" d="M28.296 15.697s-.012-.017-.078.06c.012-.077.025-.15.03-.22a.764.764 0 01.118-.18c-.036.072-.06.138-.06.138s.09-.167.22-.27c.09-.072.204-.106.253-.174.053-.073.041-.085.053-.097 0 0 .12-.078.302-.306.024-.03.06-.06.084-.09.042-.017.139-.06.253-.119.119-.065.252-.155.335-.192.162-.073.335-.065.415-.18.06-.017.126-.199.114-.354.09.036.55.323.709.949.114.444-.09 1.129-.175 1.459-.085.33-.097.575-.216.726-.15.199-.636.48-.755.619-.102.114-.408.402-.396.611.013.155.204.24.246.27.041.029.04.065.118.047.078-.017.107-.053.139-.053.036.005.036.012.053.012a.172.172 0 00.037-.005s-.012.221-.53.288c-.036.005-.072.017-.119.025.061-.03.098-.03.163-.12-.073-.011-.281-.024-.335-.04a.649.649 0 01.12-.144c.04-.036-.006-.048-.042-.029a1.954 1.954 0 00-.18.138c-.06.054-.114.127-.21.192a.474.474 0 01.089-.415c-.03.005-.085.09-.138.073a.773.773 0 01.017-.264c.029-.11.186-.302.186-.302l.762-1.361.163-1.032-1.745.34z" fill="#92723A"/><path fill-rule="evenodd" clip-rule="evenodd" d="M28.255 15.755s-.041.03.041.085c-.012.017-.041.078-.078.119-.04.048-.084.078-.102.119-.036.085-.065.143-.065.18 0 .036-.012.269-.114.42-.037.053-.078.143-.107.203-.06.107-.114.192-.126.24-.024.085-.041.318-.041.318l.072-.09a.682.682 0 01-.106.175c.029-.024.114-.085.257-.211.199-.168.51-.45.888-.672-.114.041-.21.041-.288.053.06-.06.606-.701.893-.762a.115.115 0 00.024-.078l-.245-.024-.498.107-.073-.384-.332.201v.001z" fill="#B18E3E"/><path fill-rule="evenodd" clip-rule="evenodd" d="M29.046 17.94s-.065.065-.126.227a.765.765 0 01-.12-.162c-.089-.15-.227-.342-.55-.233-.005-.102-.012-.155 0-.228.053-.012.216-.143.379-.335.114-.131.22-.282.293-.474.048-.036.131-.097.24-.167.156-.107.343-.253.372-.415-.073.03-.228.102-.461.09.09-.041.228-.085.21-.265l.066-.041a.238.238 0 00-.085-.012c-.005-.017-.012-.041-.053-.03-.041.013-.048.013-.054.03-.017.005-.072 0-.114.03-.04.028-.155.125-.199.142l.041-.073s-.119.012-.203.049c-.156.053-.335.15-.517.245.017-.03.024-.048.036-.054.012-.005.041-.012.041-.017 0-.005-.012-.048-.005-.065.055-.116.12-.226.192-.33.085-.114.102-.277.102-.277l.372-.187 1.043-.24.678.041-.085.469-.4.818-.342.745-.391.456-.36.262z" fill="#543E26"/><path fill-rule="evenodd" clip-rule="evenodd" d="M30.738 15.912s-.408.505-.522.582c.073-.155.522-1.08.684-1.337-.036-.03-.084-.03.03-.48-.097.228-.131.347-.212.408-.08.06-.09.041-.143.041a.101.101 0 00.012-.06s-.343-.042-.576-.042c-.234 0-.697.126-.954.228-.204.085-.318.085-.391.138-.073.061-.114.127-.15.144-.03.017-.168.06-.2.106-.029.048-.077.102-.077.114 0 .013-.012.03.024.017.012-.004.102-.053.204-.114a5.67 5.67 0 01.427-.22c.347-.139.456-.115.612-.144.162-.029.395-.097.55-.097.156-.005.45 0 .518.012-.03.025-.054.054-.042.156 0 .029-.024.06-.048.13-.072.2-.21.53-.288.697-.106.228-.228.42-.288.54-.06.118-.192.431-.322.599-.131.167-.2.27-.24.306-.041.036-.335.252-.314.33a1.62 1.62 0 00.636-.42c.245-.276.294-.444.486-.595.191-.15.342-.403.432-.611.075-.195.058-.255.152-.428z" fill="#806031"/><path fill-rule="evenodd" clip-rule="evenodd" d="M21.95 19.68s-.054.22-.176.33c-.119.107-.33.199-.354.378-.03.18.211.27.211.27s-.13.216-.13.378c0 .168-.006.2.011.36a.162.162 0 00-.048.048s.012.155.131.252c.12.097.221.155.282.131l.024.06s.09-.227.15-.426c.061-.204.115-.175.139-.45.024-.274.288-.744.288-.744l.18-.403-.294-.228-.415.044z" fill="#B6903C"/><path fill-rule="evenodd" clip-rule="evenodd" d="M22.495 20.075c-.06.062-.116.129-.167.2-.078.106-.138.203-.252.245-.114.041-.187.04-.18.155.007.114.114.162.175.22a.286.286 0 01.09.277c.036-.017.102-.036.162-.167.06-.131.485-.93.485-.93h-.313z" fill="#685026"/><path fill-rule="evenodd" clip-rule="evenodd" d="M24.168 18.233s.036-.097 0-.167c-.037-.073-.257-.098-.367-.18-.114-.085-.252-.144-.366-.107.017-.041.085-.131.029-.15-.053-.017-.252.072-.306.114-.053.041-.175.09-.199.119-.024.03-.065.085-.09.06-.024-.017-.036-.06-.077-.036-.042.024-.24.187-.277.282a1.439 1.439 0 01-.367.546c-.247.24-.354.395-.281.485.073.09.107.024.119.102a.653.653 0 01-.012.228c-.03.126-.078.245-.012.27.167.053.33-.048.366-.017.073.065-.041.3.131.347.175.048.347-.042.347-.042l.636-.342.612-.323.313-.619-.168-.517-.032-.053h.001z" fill="#D4B968"/><path fill-rule="evenodd" clip-rule="evenodd" d="M23.568 19.711s-.107-.162.024-.306c.132-.143.318-.204.391-.293a.112.112 0 00-.053-.037.484.484 0 01.21-.199.202.202 0 00-.137-.065c-.12 0-.192.073-.302.073-.106 0-.118-.054-.118-.054s.18-.017.162-.097c-.017-.085-.048-.085-.048-.085s.347-.144.408-.22c.06-.078.053-.168.065-.205.041 0 .282-.126.379-.072.097.053.03.199.03.199s.293-.221.443-.438c.13.012.192-.09.288-.09.119 0 .306.163.342.51.024.199.06.313.024.665-.017.2-.012.624.048.835.041.167.139.15.139.15a.272.272 0 01-.085.131c-.066.061-.073.221-.066.282.01.044.022.088.037.131 0 0-.078.09-.098.15-.017.061-.097.103-.155.103-.058 0-.03-.005-.107 0s-.102.017-.15 0c-.049-.017-.085-.037-.066-.192.017-.156-.6-.517-.6-.517l-1.007-.36.002.001z" fill="#CCA849"/><path fill-rule="evenodd" clip-rule="evenodd" d="M22.41 21.245s.221.294 1.129.294c.432 0 .582-.042.672-.066.097-.024.461-.167.828-.6.33-.39.257-.55.257-.55l-.192-.03-.624.086-1.846.786-.224.08z" fill="#585136"/><path fill-rule="evenodd" clip-rule="evenodd" d="M23.087 21.318s-.786.175-.786-.323c0-.485.485-.995.607-1.085.126-.09.427-.192.427-.192h.726l.138.367-.06.791-1.052.442z" fill="#252211"/><path fill-rule="evenodd" clip-rule="evenodd" d="M23.813 19.867s-.15-.139-.492.048c-.343.186-.62.576-.637.93-.016.312.258.546.685.558.318.012.51-.025.607-.048l-.15-.187-.013-1.301z" fill="#C3B378"/><path fill-rule="evenodd" clip-rule="evenodd" d="M23.665 19.944s-.036-.03-.144.03c-.09.047-.22.174-.323.264-.065.053-.107.077-.144.119-.15.18-.276.473-.203.619.073.145.313.313.924.199l-.112-1.23.002-.001z" fill="#E6D89C"/><path fill-rule="evenodd" clip-rule="evenodd" d="M23.466 20.245s-.097.15-.097.391c0 .245.138.636.648.665.39.024.653-.563.937-.791.216-.175.347-.18.347-.18s-.22-.24-.81-.55c-.583-.314-1.236-.355-1.59.125.167-.012.708-.15.708-.15l.265.085-.408.405z" fill="#252211"/><path fill-rule="evenodd" clip-rule="evenodd" d="M24.228 20.563c-.017-.036-.029-.085.041-.097.07-.012.102-.005.127.048.024.053.048.097.012.119-.037.02-.131 0-.18-.07zm-.114-.342s-.024.017-.012-.017c.005-.041.037-.114.114-.097.078.017.06.102.048.126-.013.024-.078.066-.126.048a.04.04 0 01-.027-.024.04.04 0 01.003-.037z" fill="#6F674D"/><path fill-rule="evenodd" clip-rule="evenodd" d="M17.544 20.376s.192.144.415.138c.22-.005.505-.233.636-.378.078-.085.144-.175.216-.245.06-.061.102-.09.13-.131.042-.049.086-.139.108-.168-.054.041-.131.114-.211.163a2.496 2.496 0 01-.314.162c-.065.024-.745.384-.745.384l-.235.075z" fill="#AC924C"/><path fill-rule="evenodd" clip-rule="evenodd" d="M17.837 18.582s.107-.072.314-.119c.199-.048.6-.085.6-.085l.33.145.13.497-.24.517-.305.192-.348-.558-.48-.588z" fill="#9F8E57"/><path fill-rule="evenodd" clip-rule="evenodd" d="M17.405 19.027l-.114.085s.03-.053.054-.216.15-.558.335-.786c.184-.229.18-.216.18-.216a.121.121 0 00-.098.024c.025-.054.18-.246.335-.342.156-.096.216-.126.379-.048.162.078.204.119.323.114.119-.005.22-.131.22-.131s.025.078-.065.257c-.09.18-.444.546-.444.546l-.738.505-.367.208z" fill="#EAC970"/><path fill-rule="evenodd" clip-rule="evenodd" d="M17.951 18.522s.534.073.697-.078c.005.017.024.017.024.03a.042.042 0 01-.012.024.4.4 0 01.054-.005.31.31 0 00.065.012.383.383 0 00.054-.005.09.09 0 01-.037.06c.024 0 .048.006.048.025 0 .02.005.078-.024.09a.11.11 0 01-.073-.005.3.3 0 00.037.131c.047.09.15.192.288.163 0 0 .072.174-.234.563-.04.053-.085.126-.138.187a.715.715 0 00-.048.143s.517-.2.665-.653c.15-.456.18-.905.15-1.325a.684.684 0 00-.053-.265c-.072-.15-.276-.126-.359-.041-.119.119-.318.415-.595.619-.281.204-.293.24-.51.33h.001z" fill="#D7BC6B"/><path fill-rule="evenodd" clip-rule="evenodd" d="M17.31 19.177s-.101.061-.155.288c-.053.233.048.517.107.607.059.09.192.335.469.347a.514.514 0 00.199-.041c.096-.044.187-.1.27-.168.118-.09.215-.167.203-.174-.03-.012-.733-.595-.733-.595l-.265-.295-.094.032z" fill="#585136"/><path fill-rule="evenodd" clip-rule="evenodd" d="M17.976 20.143s.143-.012.228-.065c.085-.054-.498-.631-.498-.631l.042.624.228.072z" fill="#453A25"/><path fill-rule="evenodd" clip-rule="evenodd" d="M17.357 19.133s-.073.139-.073.175a3.06 3.06 0 00.053.612c.03.126.187.318.391.318.126 0 .301-.078.301-.097 0-.025-.18-.048-.228-.139-.029-.048-.041-.167-.048-.288-.005-.077-.005-.162.024-.192.066-.072.078-.281.078-.281l.233-.433h-.306l-.367.228-.058.097z" fill="#84754B"/><path fill-rule="evenodd" clip-rule="evenodd" d="M17.267 19.267s.24-.318.456-.39c.217-.074.313-.03.313-.03l-.126.323-.18.199.013.102s-.03.27.15.456c.18.187.313.18.39.18.079 0 .302-.066.416-.335.102-.252.187-.576-.017-.9-.2-.323-.551-.336-.619-.336-.068 0-.602.027-.796.73v.001z" fill="#252211"/><path fill-rule="evenodd" clip-rule="evenodd" d="M23.43 20.347c-.09-.041-.005-.294.085-.371a.632.632 0 01.403-.18c.072-.005.143.041.13.09-.016.09-.142.216-.257.306-.157.123-.26.201-.361.155z" fill="#F7F7E7"/><path fill-rule="evenodd" clip-rule="evenodd" d="M18.575 18.97c.066-.004.15.049.168.12.017.078-.042.233-.168.233-.102 0-.155-.126-.155-.163 0-.03.01-.059.024-.085.005-.007.017-.092.131-.104z" fill="#F8F6DE"/><path fill-rule="evenodd" clip-rule="evenodd" d="M17.629 19.027s-.168.077-.245.24a.637.637 0 00-.049.384.94.94 0 00.115.264c.04.054.097.09.138.085.041-.005.126-.114.126-.18 0-.065.005-.342.085-.492.07-.15-.17-.301-.17-.301z" fill="#D4C38B"/><path fill-rule="evenodd" clip-rule="evenodd" d="M17.653 19.015c-.03.016-.078.04-.066.072.012.03.114.048.15.12a.25.25 0 01.03.186.296.296 0 00.085-.06c.053-.061.119-.144.175-.144.036 0 .072.017.107.017.053 0 .106-.017.114-.072.012-.073-.102-.139-.168-.127.012-.048.03-.119-.024-.167-.054-.049-.221.036-.258.06-.036.025-.145.115-.145.115z" fill="#E2D59D"/><path fill-rule="evenodd" clip-rule="evenodd" d="M21.51 24.114l.359-.106.102.073s.073.155.187.175c-.037.077-.131.143-.127.198a.168.168 0 00.054.098s-.323.534.313 1.072a9.65 9.65 0 00-.444.192c.073.017.228.048.293.107.066.058.066.077.127.114.06.036.097.085.085.106-.041-.024-.18-.097-.204-.029-.024.068-.6.041-.6.041l-.97.187s.036-.097-.066-.186c-.119-.107-.265.004-.42-.115-.204-.155-.211-.335-.277-.402.066-.042.2-.102.517-.145-.012-.024-.053-.097-.029-.162.03-.085.15-.139.114-.24.054-.012.078-.012.211-.18.127-.167.204-.204.302-.216.097-.012.155 0 .335-.167.126-.12.084-.221.084-.221s.083-.027.054-.194z" fill="#CBAC5A"/><path fill-rule="evenodd" clip-rule="evenodd" d="M20.45 24.168c.004-.024.023-.037.155-.024.13.012.96-.078 1.186-.09.229-.017 1.032-.005 1.423.077.39.083.786.18.978.229.192.053.252.072.245.096-.005.025-.048.049-.073.042-.024-.005-.66-.2-.857-.24-.196-.041-.876-.15-1.248-.144-.346.005-.485-.005-.779.029-.293.036-.779.085-.924.066-.144-.017-.115-.017-.107-.042z" fill="#D6BC6F"/><path fill-rule="evenodd" clip-rule="evenodd" d="M22.403 26.07s.498.27.677.6c.131.245-.077.366-.077.366s.281 0 .245.156c-.017.097-.486.359-.799.497-.318.139-.306.131-.461.156-.15.024-.563-.048-.648.073-.085.12-.048.245-.024.264.024.017.22.041.22.041s-.04.114-.449.127c-.407.012-.51.04-.534.085-.024.04.078.017.265.048.187.029.45.048.45.048s-.086.072-.307.13c-.252.066-.648.127-.767.2.06.04.15.102.192.106a1.213 1.213 0 00-.27.098c.037.024.086.053.086.053s-.204.245-.323.306c-.119.06-.803.378-1.039.318-.587-.156-.66-.799-.803-.847-.216-.073-.318.072-.51-.03.085-.06.131-.096.22-.138-.096-.048-.599-.366-.599-.366a3.694 3.694 0 00-.174-.335c-.098-.168-.24-.391-.348-.588-.233-.432-.245-.63-.456-.876.037-.048.163-.041.163-.041l1.77.582 3.137.091.816-1.165.347.042z" fill="#DFC677"/><path fill-rule="evenodd" clip-rule="evenodd" d="M17.755 27.847a.26.26 0 00.065.054c.061.04.15.09.212.162.024-.036.084-.102.192 0 .107.102.24.03.322.054.085.029.09.04.09.04s.048-.04.155-.084c.066-.024.144-.041.229-.066.077-.017.162-.04.22-.04.054.036.246.24 1.015-.061.726-.282.893-.314 1.015-.27.012-.03.024-.085.21-.078 0-.077-.155-.342-.155-.342l-.856-.294H20l-1.405.258-.779.444-.06.224h-.001z" fill="#C4A859"/><path fill-rule="evenodd" clip-rule="evenodd" d="M17.286 27.354s.017.131.212.27c.192.138.252.22.252.22s.036-.047.066-.096c.029-.054.053-.114.102-.131.097-.042.317.036.366.024.041-.012.03-.097.073-.097.102-.005.167.065.204.065.036 0 .126-.005.138-.024.012-.02.017-.22.155-.318a.415.415 0 01.384-.036c0 .036.005.126.102.13.097.006.107-.011.192.018.085.029.187-.005.233.138.041-.012.139-.024.114-.163.048-.036.09-.06.192-.203.025-.037.066-.078.097-.131.085 0 .187-.017.323.102-.041.029-.066.047-.078.077a.871.871 0 01.097.114c.037.048.061.107.107.12.102.028.27-.013.457 0a.9.9 0 01.395.118c.025-.012.025-.017.085-.005.06.012.107.017.042-.06.036.017.077.053.114.017.036-.037.065-.09.167-.102.102-.012.138.005.18-.102.053-.131-.131-.131-.131-.131s.085-.078.18-.18c.113-.107.244-.245.276-.415.053-.313-.252-.354-.252-.354l-1.483.456-1.813-.09-1.547.77z" fill="#927D49"/><path fill-rule="evenodd" clip-rule="evenodd" d="M15.954 23.07s-.048.061-.078.204-.017.127-.04.228c-.025.102-.324 1.117-.212 1.46.112.341.306.468.427.744.025.06.048.097.06.15.042.18.006.319.054.498a.55.55 0 00.127.204c.144.15.378.294.48.396.143.15.347.456.606.485.139.017.335-.041.498-.138.144-.09.233-.216.384-.288.107-.054.22-.073.323-.097a1.46 1.46 0 01.517-.024c.174.036.587.162.816.162.178-.003.356-.027.529-.072.347-.102.767-.277 1.043-.355.163-.048.294-.06.428-.09.228-.053.42-.126.529-.264-.073-.085-.163-.216-.648-.212-.551.013-1.187.318-1.5.367-.313.049-.45.09-.799-.037-.343-.127-.354-.211-.354-.211s-.36-.252-.51-.894c-.15-.641 0-1.109.39-1.553.102-.114.078-.216.078-.216s.257-.347.187-.672c-.078-.323-.575-.257-.575-.257l-2.76.482z" fill="#6E6342"/><path fill-rule="evenodd" clip-rule="evenodd" d="M16.369 24.15a.252.252 0 00-.03.132c.006.065.025.15.222.342.167.167.13.354.13.354s.085.017.314-.09c.18-.085.24.066.24.066a.507.507 0 01.167-.054.368.368 0 00.15-.048s.212.216.396.318c.168.09.265.15.348.09.077-.053.077-.163.072-.211a.628.628 0 00-.072-.126c-.054-.078-.139-.168-.144-.24-.013-.168.126-.367.097-.416-.03-.048-.139-.06-.408.037-.28.092-1.483-.153-1.483-.153z" fill="#39331F"/><path fill-rule="evenodd" clip-rule="evenodd" d="M17.005 25.235s-.138-.13-.09-.767c.059 0 .117.005.175.017 0 0 .075.493-.085.75z" fill="#292311"/><path fill-rule="evenodd" clip-rule="evenodd" d="M16.02 22.585a.38.38 0 00.053-.048c-.048.09-.27.449-.09 1.015.18.563.631.982 1.187 1.002.556.02.848-.252 1.182-.66.131-.163.282-.367.415-.505.2-.216.354-.277.354-.485 0-.428-.436-.62-1.08-.811-.643-.192-1.223-.168-1.524-.037-.294.143-.42.294-.498.53v-.001z" fill="#252211"/><path fill-rule="evenodd" clip-rule="evenodd" d="M18.085 25.427l.048-.024s.012-.192.09-.187c.077.012.114.114.107.15-.005.037-.025.098-.102.09-.102.003-.144-.029-.144-.029h.001z" fill="#3F3824"/><path fill-rule="evenodd" clip-rule="evenodd" d="M17.869 24.612s.048-.017.107.041c.048 0 .257-.024.323.017.065.041.085.077.085.077s-.245.054-.38 0c-.135-.046-.135-.135-.135-.135z" fill="#2D2815"/><path fill-rule="evenodd" clip-rule="evenodd" d="M18.95 24.648a.606.606 0 00-.27-.131c-.024-.005-.03.012-.048.012-.012-.005-.017-.041-.017-.041l-.079.041s-.012.017.03.048c.036.03.096.054.113.102.017.049.017.066.025.073a.26.26 0 00.13-.024c.042-.025.12-.064.115-.08z" fill="#82764F"/><path fill-rule="evenodd" clip-rule="evenodd" d="M17.723 25.14s.024-.167.187-.174c.168-.012.2.15.2.15l-.098.098c0-.003-.073-.105-.288-.073z" fill="#2D2816"/><path fill-rule="evenodd" clip-rule="evenodd" d="M18.78 24.42s-.09.097-.29.126c-.017-.024-.053-.073 0-.15.054-.078.115-.102.175-.078a.143.143 0 01.114.102z" fill="#574F35"/><path fill-rule="evenodd" clip-rule="evenodd" d="M19.146 24.539c.005-.024-.012-.03 0-.041.012-.013.077-.037.09-.025.004.005 0 .025 0 .048 0 .024 0 .048-.013.066-.017.024-.065.036-.09.029-.024-.007-.028-.041-.028-.048.011-.005.04-.017.04-.03zm.414-.262c0-.012.041-.037.066-.037.036 0 .036.03.04.037.013.005.013-.005.025.017.012.022.03.06.017.085-.012.024-.06.04-.073.036a.644.644 0 01-.075-.138z" fill="#82764F"/><path fill-rule="evenodd" clip-rule="evenodd" d="M18.726 24.595s.053.012.126.073a.735.735 0 01-.06.036s-.006-.056-.066-.11z" fill="#6E6342"/><path fill-rule="evenodd" clip-rule="evenodd" d="M18.607 24.06c-.012-.011.036-.04.065-.036.03.005.042.024.073.03.032.004.037-.013.048-.025.012-.012.054-.005.06 0a.134.134 0 01.013.017.068.068 0 01.024-.048.075.075 0 01.066-.012c.005.017.029.077.024.09-.005.012-.078.029-.09.017.012.029.066.09.073.102.007.011-.053.04-.078.036a.99.99 0 01-.279-.17zm.318-.402a.056.056 0 00-.024-.03c-.017-.004-.073 0-.073.03a.89.89 0 00.102.276c.06.085.102.156.143.175a.056.056 0 00.073-.024c.004-.012.017-.102.012-.313-.005-.211-.012-.415-.024-.427-.013-.013-.061-.012-.078.012a2.253 2.253 0 00-.131.3z" fill="#585136"/><path fill-rule="evenodd" clip-rule="evenodd" d="M18.709 24.9s-.085-.053-.168-.016c-.077.036-.072.18-.072.18a.115.115 0 00.106-.013c.054-.036.122-.097.134-.15z" fill="#574F35"/><path fill-rule="evenodd" clip-rule="evenodd" d="M18.869 25.092c-.005-.048-.048-.048-.048-.072a.054.054 0 01.053-.042c.025 0 .048.03.078.048.03.017.073.048.078.085.004.037-.048.139-.107.139s-.041-.11-.053-.158h-.001zm.468-.065s-.097.029-.09 0c.008-.03.03-.037.061-.037a.096.096 0 01.061-.029c.013 0 .026.004.036.012 0 0 .066-.029.085-.012.02.017.005.017.017.037a.17.17 0 01.03.072c0 .02-.073.061-.132.054-.068-.015-.056-.085-.068-.097zm.566-.11s.029.017.005.037a.396.396 0 01-.175.053c-.073 0-.138.012-.138-.012s.06-.073.097-.085a.077.077 0 01.06-.029c.03 0 .143-.012.175-.017.03-.005.054.012.037.037-.008.017-.061.017-.061.017zm.167-.749s-.036.078-.077.078c-.041-.005-.041-.017-.041-.03 0-.016.04-.06.036-.072-.012 0-.041 0-.037-.03 0-.024.042-.053.078-.047a.16.16 0 01.097-.037c.041 0 .078.012.078.037 0 .024-.048.077-.066.09-.02.019-.043.032-.068.012zm-.553 1.434s-.048.005-.048.03c0 .012.012.012.03.005a.13.13 0 00.028-.005c.005.005.005.029.041.029a.23.23 0 00.085-.03c.03-.011.054-.024.054-.047-.012-.042-.037-.061-.073-.061a.096.096 0 00-.053.012s-.012-.024-.054 0c-.041.024-.036.024-.024.036.022.02.014.032.014.032zm-.274.253c0-.012.06-.037.077-.03a.325.325 0 01.066.108c0 .012-.06.04-.085.04-.024 0-.066-.04-.066-.047 0-.005.03-.012.03-.017.007-.012-.022-.041-.022-.054zm-.192-.355c.012-.004.012-.016.029-.029a.041.041 0 01.036-.004.06.06 0 01.042-.03c.029-.005.053 0 .048.012 0 .037.024.061.024.09 0 .03-.017.066-.078.09a.43.43 0 01-.155.012c-.012-.004-.024-.053-.012-.077a.203.203 0 01.065-.064z" fill="#82764F"/><path fill-rule="evenodd" clip-rule="evenodd" d="M19.128 25.517s-.041.024-.041.036a.11.11 0 00-.005.037c0 .007.053-.005.06-.012.003-.005-.014-.049-.014-.061z" fill="#6E6342"/><path fill-rule="evenodd" clip-rule="evenodd" d="M18.767 25.403c.024.005.066 0 .097.012.024.012.041.036.017.066-.024.029-.048.072-.102.065-.06-.005-.119-.036-.119-.06a.115.115 0 01.03-.086c.024-.019.036-.007.077.003z" fill="#585136"/><path fill-rule="evenodd" clip-rule="evenodd" d="M18.738 25.427s-.078.06-.097.09c-.024.03-.143.18-.18.211a.452.452 0 01.041-.06.248.248 0 00-.101.13c-.03.09.162.139.288.176.126.036.175.047.175.047a1.354 1.354 0 01-.119-.22c-.048-.114-.073-.127-.041-.18.024-.053.06-.09.06-.131-.014-.038-.026-.063-.026-.063z" fill="#574F35"/><path fill-rule="evenodd" clip-rule="evenodd" d="M15.97 25.619a.146.146 0 00.054 0c.037-.005.415-.144.811-.119.296.018.59.066.876.144.498.131 1.117.39 1.517.539.107.041.211.114.288.143.306.119.318.119.498.15.21.03.427-.04.653-.09.276-.06.75-.09 1.165-.15.134-.018.266-.049.395-.09 0 0-.33.33-1.121.45-.32.048-.645.052-.966.012a2.947 2.947 0 01-.546-.098c-.143-.04-.437-.15-.799-.24-.252-.065-.534-.114-.857-.174-.796-.146-1.66-.313-1.967-.476v-.001z" fill="#252211"/><path fill-rule="evenodd" clip-rule="evenodd" d="M15.078 24.119c-.192.163-.396.318-.595.468l-.6.461c-.203.15-.402.306-.606.456-.204.15-.408.294-.624.432a9.62 9.62 0 01.6-.46c.203-.149.414-.294.61-.444l.6-.461c.207-.15.406-.306.615-.452zm-1.061 1.7s.216-.18.485-.433c.335-.313.745-.713.877-.786l-1.362 1.218z" fill="#CFB66C"/><path fill-rule="evenodd" clip-rule="evenodd" d="M14.017 25.818c.107-.107.22-.211.335-.313l.175-.15c.053-.049.114-.103.167-.156.107-.107.211-.221.318-.33.053-.055.109-.107.168-.155a.448.448 0 01.097-.066c.029-.017.06-.048.102-.053-.025.036-.054.053-.078.085-.03.024-.053.053-.078.077-.053.053-.114.102-.167.15-.114.098-.233.193-.347.294-.114.102-.221.211-.335.313-.124.105-.238.207-.357.304zm1.452-.971s-.792.774-.954.9l.954-.9z" fill="#CFB66C"/><path fill-rule="evenodd" clip-rule="evenodd" d="M15.469 24.847a2.59 2.59 0 01-.229.233l-.24.228c-.078.078-.15.156-.233.233-.085.073-.162.144-.252.211l.232-.228c.078-.077.163-.143.246-.22l.233-.229c.08-.08.157-.157.242-.228zm.036.42a5.028 5.028 0 01-.258.595c-.203.408-.51.917-.643 1.177l.9-1.772z" fill="#CFB66C"/><path fill-rule="evenodd" clip-rule="evenodd" d="M15.505 25.267a.68.68 0 01-.054.245 2.08 2.08 0 01-.097.228c-.036.073-.077.15-.119.221-.04.07-.09.143-.126.216l-.245.432c-.085.144-.168.289-.257.427.06-.155.143-.3.22-.444a8.05 8.05 0 00.24-.437 2.46 2.46 0 00.103-.228c.036-.078.072-.15.102-.22.036-.078.065-.151.101-.222.042-.075.076-.148.132-.218z" fill="#CFB66C"/><path fill-rule="evenodd" clip-rule="evenodd" d="M16.369 27.257s-.24.318-.216.721c.065-.21.148-.534.216-.72zm.228.319s-.085.864-.155 1.289c.1-.491.119-.45.155-1.289zm1.59 1.34s-.36 1.056-.367 1.35c.078-.302.229-.919.367-1.35z" fill="#DEC270"/><path fill-rule="evenodd" clip-rule="evenodd" d="M19.027 27.192s.582.961 1.02 1.781c-.119-.412-.391-1.17-1.02-1.781z" fill="#CBAF59"/><path fill-rule="evenodd" clip-rule="evenodd" d="M20.592 28.607c.32.565.609 1.148.864 1.745-.048-.413-.18-1.119-.864-1.745z" fill="#E3C677"/><path fill-rule="evenodd" clip-rule="evenodd" d="M25.194 30.024c.097-.06.29-.39.457-.473.167-.085.293-.102.444-.27.15-.174.192-.281.521-.42.462-.199.145-.456.145-.456.05-.05.105-.096.162-.138.12-.09.257-.2.245-.391-.017-.323-.077-.791-.342-1.063.257-.054.75-.09 1.056-.168.354-.09.517-.216.517-.216s-.204-.347.126-.696c.33-.35.6-.558.799-.95-.228-.028-.576-.15-1.464.188.048.022.094.048.139.077 0 0-.546.15-.745.318-.348.294-.391.534-.768.714-.376.18-.754.13-1.067.277-.313.145-.36.269-.474.322.024.03-.005.078.041.12-.029.04-.199.317-.37.317.016.066.162.114.162.114s-.107.078-.379.097c.138.144.27.301.631.53-.029.06-.15.15-.102.264.054.114.192.27.745.396-.281.012-.611.078-1.056.017-.444-.054-.517-.085-.79-.017.028.029.106.029.174.107-.073.004-.53-.054-.685.15-.162.211-.233.558-.22.791-.085.042-.168.114-.127.265.042.15.258.199.396.294.138.102.15.138.282.114.138-.03.342-.168.46-.168.12 0 .205.09.205.09s.322-.155.354-.126c.03.029.005.216.036.245.032.022.396-.194.493-.255z" fill="#ECD592"/><path fill-rule="evenodd" clip-rule="evenodd" d="M32.25 20.31c-1.517-3.917-5.267-4.642-5.267-4.642H16.284l.041 3.99h2.131v8.91h-2.172v3.983h10.403c2.507 0 4.517-2.52 4.517-2.52 3.218-4.567 1.046-9.72 1.046-9.72zm-5.507 7.037s-.816 1.177-1.704 1.177h-1.776l-.042-8.857H25.5s1.056.221 1.794 2.311c0 0 .978 2.992-.551 5.369z" fill="#fff" fill-opacity=".8"/></g></svg>