<svg width="102" height="48" fill="none" xmlns="http://www.w3.org/2000/svg"><mask id="a" style="mask-type:alpha" maskUnits="userSpaceOnUse" x="0" y="0" width="102" height="48"><path fill="#D9D9D9" d="M0 0h102v48H0z"/></mask><g mask="url(#a)"><path d="M53.738 24.406c.115.358-.115.845.473.602 1.562-.358 2.766-1.318 3.354-2.765.244-.601.115-1.203-.358-1.561-.359-.358-.846-.114-1.32 0a1.861 1.861 0 00-.96.716 6.375 6.375 0 00-1.19 3.008zm9.245.73v3.725c-1.433.96-2.766 2.034-4.443 2.636-1.204.358-2.28.716-3.598.472-2.637-.358-4.443-2.163-4.687-4.798-.244-2.88.473-5.515 2.394-7.792 1.204-1.433 2.766-2.035 4.687-1.676 2.279.358 3.597 2.635 2.766 4.798-.96 2.392-2.881 3.84-5.275 4.684-.716.244-.845.358-.243.96.358.602.96.716 1.562.602 2.035-.244 3.727-1.204 5.404-2.393.473-.386.946-.744 1.433-1.217z" fill="#E22937"/><path d="M8 18.62c.717-.115 1.433-.473 2.164-.717.244-.114.244-.358.244-.472 0-.717 0-1.433.115-2.163.358-1.92 1.677-2.994 4.085-3.238 1.075-.114 2.279.115 3.354.359.243.114.473.114.243.472-.243.473-.358.96-.602 1.561-.114.359-.243.359-.602.244-.358-.115-.845-.244-1.318-.244-1.319 0-1.806.359-2.165 1.676-.358 1.562-.243 1.676 1.319 1.676h.244c2.035 0 2.035 0 1.806 2.034 0 .358-.115.358-.359.358h-2.393c-.473 0-.717.115-.717.717v10.442c0 .473-.115.716-.602.602h-1.92c-.359-.115-.474-.358-.474-.717V20.654c0-.473-.114-.717-.602-.602H8.014C8 20.052 8 18.619 8 18.619zm85.828 13.063h-2.523c-.358 0-.473-.114-.473-.473v-7.92c0-.359 0-.717-.114-1.075-.244-1.433-.96-2.163-2.394-2.278-1.92-.114-3.354.845-3.727 2.765-.114.716-.114 1.432-.114 2.277v6.117c0 .473-.115.601-.602.601H81.96c-.358 0-.473-.114-.473-.472V18.132c0-.358.115-.472.473-.472.602 0 1.433-.244 1.806.114.358.358.358 1.075.602 1.805.846-1.074 1.92-1.676 3.125-2.034 1.204-.243 2.522-.243 3.726.244 1.563.472 2.394 1.676 2.638 3.237 0 .114-.115.358.114.358v.358c-.243.244-.114.473-.114.716v9.225h-.029zm.057.014v-9.239c0-.243-.114-.472.115-.716l-.115 9.955zm-27.878 6.188V38h-2.996v-.115h2.996zm.1-13.12c0 .472.115 1.203.115 1.804 0 .358.115.602.244.96.358 1.203 1.204 1.92 2.637 1.92 1.562.114 2.394-.359 3.125-1.676.473-.96.602-2.034.602-2.994 0-1.075-.115-2.278-.602-3.237-.602-1.075-1.677-1.676-2.996-1.562-1.319.115-2.279.602-2.766 2.034-.359.831-.359 1.676-.359 2.75zm-.129 13.077h-2.995V18.29c0-.473.114-.602.602-.602.602.115 1.433-.243 1.806.115.372.358.358 1.074.473 1.676.243-.115.358-.358.473-.473 1.92-2.277 7.08-2.392 8.757 1.676.96 2.636.96 5.4 0 8.036-1.677 4.197-6.966 3.953-8.886 1.561l-.359-.358c.258 2.765.13 5.4.13 7.921zm-15.723-6.116H47.13c-.358 0-.473-.243-.602-.358-1.075-1.561-2.035-3.123-3.125-4.799-.96 1.562-2.035 2.994-2.995 4.44-.359.474-.717.717-1.319.717-.846-.115-1.677 0-2.637 0 .602-.96 1.204-1.676 1.806-2.521.96-1.432 1.806-2.765 2.766-4.082.358-.473.244-.717 0-1.075a507.029 507.029 0 00-4.443-6.23h3.354c.243 0 .243.243.358.357.846 1.318 1.806 2.636 2.637 4.083.115.114.244.243.359.473.96-1.433 2.035-2.994 2.88-4.441.244-.358.474-.473.846-.473h2.767c.114.244-.115.473-.244.602-1.319 1.92-2.766 3.953-4.085 5.873-.244.358-.244.473 0 .845l4.314 6.116c.13 0 .244.23.488.473zm-20.167-8.508h2.766c.115 0 .358.114.358-.244.115-1.318-.845-2.765-2.164-2.994-2.035-.601-3.956.716-4.2 2.88 0 .358 0 .472.359.472.96-.114 1.92-.114 2.88-.114zm5.518 5.385v2.163c0 .244-.115.358-.358.358-2.523.96-5.16 1.204-7.798.244-2.035-.845-3.239-2.521-3.597-4.684-.359-2.278-.244-4.44 1.075-6.475 1.204-2.034 3.239-2.764 5.518-2.635 2.164 0 3.841.845 5.045 2.635.717 1.204.846 2.393.846 3.725 0 1.561 0 1.561-1.562 1.561H27.45c-.473 0-.602.115-.473.602.473 2.764 2.165 3.953 5.046 3.595 1.075-.115 2.164-.358 3.124-.845.1-.115.23-.244.459-.244zm44.663-3.953v6.474c0 .359-.115.473-.473.473H77.76c-.243 0-.473 0-.473-.358V18.047c0-.359.115-.359.473-.359h2.036c.473 0 .473.115.473.473v6.489zm-57.62-2.765v9.24c0 .472-.115.601-.602.601H20.24c-.602 0-.717-.115-.717-.602V12.661c0-.473.115-.602.602-.602h1.92c.474 0 .603.115.603.602-.115 3.108 0 6.116 0 9.224zm56.172-6.23c-1.075 0-1.677-.602-1.806-1.562 0-1.074.602-1.676 1.677-1.676 1.075 0 1.677.602 1.677 1.676.129.96-.459 1.561-1.548 1.561z" fill="#838383"/></g></svg>