<svg width="210" height="88" fill="none" xmlns="http://www.w3.org/2000/svg"><path d="M13.42 31.29c2.931 0 5.46 1.172 7.584 3.513 2.094 2.311 3.141 5.155 3.141 8.53 0 3.406-1.047 6.264-3.141 8.575-2.095 2.311-4.623 3.467-7.585 3.467-2.902 0-5.131-.928-6.687-2.783v2.144H0v-31.93h6.732v11.267c1.556-1.855 3.785-2.782 6.687-2.782zM8.212 47.393c1.017 1.004 2.304 1.506 3.86 1.506s2.827-.502 3.814-1.506c1.018-1.003 1.526-2.356 1.526-4.06 0-1.702-.508-3.055-1.526-4.059-.987-1.003-2.258-1.505-3.814-1.505s-2.843.502-3.86 1.505c-.987 1.004-1.481 2.357-1.481 4.06 0 1.703.494 3.056 1.481 4.06zm41.697-1.323H33.976c.748 2.128 2.543 3.193 5.386 3.193 1.825 0 3.261-.578 4.308-1.734l5.386 3.148c-2.184 3.132-5.445 4.698-9.784 4.698-3.74 0-6.762-1.14-9.066-3.421-2.244-2.28-3.366-5.154-3.366-8.621 0-3.406 1.107-6.264 3.321-8.575 2.244-2.312 5.117-3.467 8.617-3.467 3.262 0 5.97 1.155 8.124 3.466 2.184 2.25 3.276 5.11 3.276 8.576 0 .973-.09 1.885-.27 2.737zm-16.067-5.11h9.649c-.658-2.402-2.244-3.603-4.758-3.603-2.602 0-4.233 1.2-4.891 3.603zm32.647-9.03v6.568h-4.623v8.073c0 .882.344 1.46 1.032 1.734.688.243 1.885.319 3.59.228v6.203c-4.248.456-7.21.046-8.886-1.231-1.645-1.308-2.468-3.619-2.468-6.934v-8.073h-3.59V31.93h3.59v-4.334l6.732-2.052v6.386h4.623z" fill="#F9B035"/><path d="M93.26 44.155l3.232-12.225h7.181l-7.181 22.807h-6.283l-3.59-12.179-3.591 12.179h-6.283L69.564 31.93h7.18l3.232 12.225 3.5-12.225h6.284l3.5 12.225zm26.234-12.863c2.424 0 4.414.836 5.969 2.508 1.616 1.703 2.424 4.014 2.424 6.934v14.003h-6.732v-13c0-1.307-.359-2.326-1.077-3.056s-1.661-1.095-2.828-1.095c-1.316 0-2.348.41-3.096 1.232-.718.79-1.078 1.946-1.078 3.467v12.452h-6.732v-31.93h6.732v11.267c1.347-1.855 3.486-2.782 6.418-2.782zm29.307 2.782V31.93h6.732v22.807h-6.732v-2.144c-1.556 1.855-3.785 2.783-6.687 2.783-2.962 0-5.49-1.156-7.585-3.467-2.094-2.311-3.141-5.17-3.141-8.575 0-3.376 1.047-6.219 3.141-8.53 2.125-2.342 4.653-3.512 7.585-3.512 2.902 0 5.131.927 6.687 2.782zm-10.681 9.26c0 1.703.494 3.056 1.481 4.06.987 1.003 2.274 1.505 3.86 1.505 1.585 0 2.872-.502 3.859-1.506.988-1.003 1.481-2.356 1.481-4.06 0-1.702-.493-3.055-1.481-4.059-.987-1.003-2.274-1.505-3.859-1.505-1.586 0-2.873.502-3.86 1.505-.987 1.004-1.481 2.357-1.481 4.06zm29.084 11.403h-6.732V21.439h6.732v33.298zm26.873-8.667h-15.933c.748 2.13 2.544 3.193 5.386 3.193 1.825 0 3.261-.577 4.308-1.733l5.386 3.147c-2.184 3.133-5.445 4.699-9.784 4.699-3.74 0-6.762-1.14-9.066-3.421-2.244-2.281-3.366-5.155-3.366-8.621 0-3.406 1.107-6.265 3.322-8.576 2.244-2.31 5.116-3.466 8.617-3.466 3.261 0 5.969 1.155 8.123 3.466 2.184 2.25 3.276 5.109 3.276 8.576 0 .973-.09 1.885-.269 2.736zm-16.067-5.108h9.649c-.658-2.403-2.244-3.604-4.757-3.604-2.603 0-4.234 1.201-4.892 3.604zM169.871 8.1a8.096 8.096 0 018.143-8.1c4.519.016 8.096 3.616 8.096 8.145 0 4.516-3.617 8.167-8.093 8.165-4.545 0-8.16-3.646-8.144-8.21h-.002zm-24.995 68.596c-3.07.013-5.5-2.382-5.524-5.441-.024-3.122 2.398-5.58 5.498-5.571a5.51 5.51 0 015.502 5.492c.011 3.027-2.448 5.509-5.476 5.52zm30.38 6.541c.003-2.666 2.161-4.82 4.785-4.782 2.617.038 4.684 2.151 4.684 4.782 0 2.68-2.115 4.787-4.785 4.763-2.625-.025-4.687-2.124-4.684-4.763zm30.876-52.22c2.177.014 3.868 1.725 3.868 3.92 0 2.183-1.708 3.913-3.873 3.93-2.182.013-3.975-1.796-3.942-3.985a3.912 3.912 0 013.944-3.862l.003-.003zM147.896 17.24a3.142 3.142 0 01-3.158-3.094c-.021-1.695 1.387-3.157 3.083-3.198 1.726-.04 3.214 1.43 3.209 3.17a3.137 3.137 0 01-3.134 3.123z" fill="#fff"/></svg>