<svg width="48" height="48" fill="none" xmlns="http://www.w3.org/2000/svg"><mask id="a" style="mask-type:alpha" maskUnits="userSpaceOnUse" x="0" y="0" width="48" height="48"><rect width="48" height="48" rx="5" fill="#300001"/></mask><g mask="url(#a)"><path d="M24 9C15.716 9 9 15.715 9 24s6.715 15 15 15 15-6.715 15-15c0-8.284-6.715-15-15-15zm-2.316 6.956h4.64l-1.637 6.16 2.272-.83.019.054-.574 2.156-2.306.842-.974 3.669h7.707l-.79 2.95H17.69l1.262-4.739-1.784.652.59-2.223 1.785-.653 2.14-8.038z" fill="#838383"/></g></svg>