<svg width="64" height="48" fill="none" xmlns="http://www.w3.org/2000/svg"><mask id="a" style="mask-type:alpha" maskUnits="userSpaceOnUse" x="0" y="0" width="64" height="48"><rect width="64" height="48" rx="5" fill="#1E1E1E"/></mask><g mask="url(#a)"><path d="M32 35.417c-3.13-2.751-5.115-6.845-5.115-11.417 0-4.571 1.985-8.665 5.115-11.416C29.458 10.35 26.16 9 22.557 9 14.517 9 8 15.716 8 24c0 8.284 6.518 15 14.557 15 3.604 0 6.901-1.35 9.443-3.584z" fill="#838383"/><path d="M32 35.416c3.13-2.751 5.115-6.845 5.115-11.416 0-4.572-1.985-8.666-5.115-11.417C34.542 10.35 37.84 9 41.443 9 49.483 9 56 15.716 56 24c0 8.284-6.517 15-14.557 15-3.603 0-6.9-1.35-9.443-3.584z" fill="#454545"/><path d="M32 35.415c3.13-2.751 5.115-6.845 5.115-11.417 0-4.571-1.985-8.665-5.115-11.416-3.13 2.751-5.115 6.845-5.115 11.416 0 4.572 1.985 8.666 5.115 11.417z" fill="#9E9E9E"/></g></svg>