<svg width="130" height="48" fill="none" xmlns="http://www.w3.org/2000/svg"><mask id="a" style="mask-type:alpha" maskUnits="userSpaceOnUse" x="0" y="0" width="130" height="48"><rect width="130" height="48" rx="5" fill="#1E1E1E"/></mask><g mask="url(#a)"><path d="M44.454 15.044a.476.476 0 00-.471.402L41.267 32.67a.44.44 0 00.436.51h3.22a.477.477 0 00.471-.403l.798-5.058a.476.476 0 01.47-.402h2.929a6.945 6.945 0 006.856-5.879c.535-3.411-2.13-6.386-5.907-6.393h-6.086zm3.13 3.845h2.343c1.93 0 2.557 1.138 2.359 2.396-.199 1.262-1.174 2.19-3.04 2.19H46.86l.724-4.586zm15.413 1.17c-.813.003-1.748.17-2.8.608-2.409 1.004-3.566 3.08-4.058 4.594 0 0-1.564 4.617 1.97 7.154 0 0 3.278 2.442 6.967-.15l-.063.404a.44.44 0 00.435.51h3.057a.475.475 0 00.47-.403l1.86-11.794a.441.441 0 00-.434-.51h-3.058a.476.476 0 00-.47.402l-.1.635s-1.335-1.459-3.775-1.45zm.1 3.726c.352 0 .673.048.96.14 1.32.424 2.068 1.692 1.852 3.065-.267 1.692-1.655 2.937-3.434 2.937-.35 0-.672-.048-.96-.14-1.319-.424-2.072-1.691-1.855-3.065.267-1.691 1.659-2.937 3.438-2.937z" fill="#454545"/><path d="M88.483 15.044a.476.476 0 00-.47.402L85.297 32.67a.441.441 0 00.435.51h3.221a.476.476 0 00.47-.403l.798-5.058a.476.476 0 01.471-.402h2.928a6.944 6.944 0 006.856-5.879c.535-3.411-2.13-6.386-5.907-6.393h-6.086zm3.131 3.845h2.343c1.929 0 2.557 1.138 2.358 2.396-.198 1.262-1.174 2.19-3.04 2.19h-2.384l.723-4.586zm15.413 1.17c-.814.003-1.749.17-2.8.608-2.41 1.004-3.567 3.08-4.059 4.594 0 0-1.563 4.617 1.971 7.154 0 0 3.277 2.442 6.967-.15l-.064.404a.43.43 0 00.012.189.442.442 0 00.424.32h3.057c.235 0 .434-.17.471-.402l1.86-11.794a.445.445 0 00-.1-.356.437.437 0 00-.335-.154h-3.058a.477.477 0 00-.471.402l-.1.635s-1.335-1.459-3.775-1.45zm.1 3.726c.351 0 .672.048.96.14 1.319.424 2.067 1.692 1.851 3.065-.267 1.692-1.654 2.937-3.433 2.937a3.14 3.14 0 01-.961-.14c-1.319-.424-2.071-1.691-1.855-3.065.267-1.691 1.659-2.937 3.438-2.937z" fill="#838383"/><path d="M72.287 20.472a.358.358 0 00-.341.467l3.352 10.402-3.031 4.902a.357.357 0 00.304.545h3.582a.596.596 0 00.51-.287l9.36-15.487a.358.358 0 00-.305-.542h-3.582a.596.596 0 00-.512.292l-3.685 6.221-1.871-6.175a.477.477 0 00-.456-.338h-3.325z" fill="#454545"/><path d="M118.34 15.044a.478.478 0 00-.471.402l-2.716 17.223a.445.445 0 00.1.355.447.447 0 00.336.154h3.22c.235 0 .434-.17.471-.402l2.716-17.223a.428.428 0 00-.012-.188.434.434 0 00-.423-.321h-3.221z" fill="#838383"/><path d="M17.603 15.044a.871.871 0 00-.86.735l-1.43 9.067a.871.871 0 01.86-.735h4.19c4.216 0 7.793-3.076 8.447-7.244.049-.31.076-.625.082-.94-1.07-.562-2.33-.883-3.709-.883h-7.58z" fill="#9E9E9E"/><path d="M28.892 15.928a6.984 6.984 0 01-.082.94c-.654 4.168-4.232 7.243-8.447 7.243h-4.19a.87.87 0 00-.86.736l-1.315 8.332-.823 5.227a.707.707 0 00.699.818h4.547a.871.871 0 00.86-.736l1.198-7.596a.872.872 0 01.86-.736h2.678a8.555 8.555 0 008.447-7.243c.465-2.959-1.025-5.65-3.572-6.985z" fill="#838383"/><path d="M12.437 9a.87.87 0 00-.86.735L8.009 32.36a.708.708 0 00.699.818h5.291l1.314-8.332 1.43-9.067a.872.872 0 01.86-.736h7.58c1.38 0 2.638.322 3.71.884C28.965 12.133 25.834 9 21.53 9h-9.093z" fill="#454545"/></g></svg>