<svg width="49" height="48" fill="none" xmlns="http://www.w3.org/2000/svg"><mask id="a" style="mask-type:alpha" maskUnits="userSpaceOnUse" x="0" y="0" width="49" height="48"><rect x=".5" width="48" height="48" rx="5" fill="#1E1E1E"/></mask><g mask="url(#a)"><path d="M35.27 27.502c-1.029-.593-2.186-.765-3.333-.805-.962-.034-2.397-.65-2.397-2.4 0-1.304 1.057-2.354 2.398-2.4 1.146-.04 2.304-.213 3.331-.806a6.072 6.072 0 10-9.108-5.259c0 1.177.418 2.26.952 3.264.45.844.676 2.412-.864 3.3-1.145.662-2.575.243-3.29-.9-.603-.965-1.331-1.87-2.35-2.458a6.073 6.073 0 100 10.517c1.019-.588 1.747-1.492 2.35-2.457.495-.793 1.731-1.802 3.29-.902 1.144.661 1.498 2.11.864 3.302-.534 1.004-.952 2.086-.952 3.263a6.073 6.073 0 109.108-5.259z" fill="#454545"/></g></svg>