<svg width="135" height="48" fill="none" xmlns="http://www.w3.org/2000/svg"><mask id="a" style="mask-type:alpha" maskUnits="userSpaceOnUse" x="0" y="0" width="135" height="48"><rect width="135" height="48" rx="5" fill="#1E1E1E"/></mask><g mask="url(#a)"><path d="M51.486 20.732c-.315-.105-.98-.175-1.646-.175-1.996 0-4.132 1.617-4.132 3.614v9.52h-4.553V16.704h4.377v1.716c1.016-1.26 2.872-2.066 4.939-2.066a9.28 9.28 0 011.54.14l-.525 4.237zm5.148-12.958c1.646 0 2.977 1.261 2.977 2.907 0 1.646-1.33 2.907-2.977 2.907-1.646 0-2.977-1.26-2.977-2.907 0-1.646 1.331-2.907 2.977-2.907zM58.91 33.69h-4.552V16.706h4.553v16.986zm13.45-17.336a7.774 7.774 0 00-4.974 1.718v-1.367h-4.378v25.39h4.553V32.5a7.163 7.163 0 004.553 1.541c2.522 0 4.938-1.121 6.444-2.872 1.331-1.542 2.135-3.642 2.135-5.954 0-5.008-3.712-8.861-8.334-8.861zm-.554 13.554c-2.828 0-4.687-1.952-4.687-4.678s1.859-4.678 4.687-4.678c2.414 0 4.371 2.095 4.371 4.678 0 2.583-1.957 4.678-4.371 4.678zm36.52 3.782h-4.553V8.826h4.553v24.866zm18.561-2.696c-1.646 1.96-4.342 3.047-6.969 3.047-5.078 0-8.896-3.502-8.896-8.826 0-4.728 3.223-8.86 8.266-8.86 4.693 0 8.02 3.957 8.02 8.685.002.434-.033.868-.105 1.296h-11.768c.245 2.381 2.172 4.027 4.588 4.027 1.926 0 3.467-1.085 4.273-1.96l2.591 2.59zm-4.237-7.985c-.14-1.506-1.506-2.977-3.362-2.977-1.892 0-3.432 1.436-3.643 2.977h7.005zm-29.908-6.655a7.773 7.773 0 00-4.973 1.718v-1.367h-4.378v25.39h4.553V32.5a7.162 7.162 0 004.553 1.541c2.522 0 4.938-1.121 6.444-2.872 1.331-1.542 2.135-3.642 2.135-5.954 0-5.008-3.712-8.861-8.334-8.861zm-.553 13.554c-2.828 0-4.687-1.952-4.687-4.678s1.859-4.678 4.687-4.678c2.414 0 4.371 2.095 4.371 4.678 0 2.583-1.957 4.678-4.371 4.678z" fill="#838383"/><path d="M31.77 27.502c-1.029-.593-2.186-.765-3.333-.805-.962-.034-2.397-.65-2.397-2.4 0-1.304 1.057-2.354 2.398-2.4 1.146-.04 2.303-.213 3.331-.806a6.072 6.072 0 10-9.108-5.259c0 1.177.418 2.26.952 3.264.45.844.676 2.412-.864 3.3-1.145.662-2.575.243-3.29-.9-.603-.965-1.331-1.87-2.35-2.458a6.073 6.073 0 100 10.517c1.019-.588 1.747-1.492 2.35-2.457.495-.793 1.731-1.802 3.29-.902 1.144.661 1.498 2.11.864 3.302-.534 1.004-.952 2.086-.952 3.263a6.073 6.073 0 109.108-5.259z" fill="#454545"/></g></svg>