<svg width="48" height="48" fill="none" xmlns="http://www.w3.org/2000/svg"><mask id="a" style="mask-type:alpha" maskUnits="userSpaceOnUse" x="0" y="0" width="48" height="48"><rect width="48" height="48" rx="5" fill="#1E1E1E"/></mask><g mask="url(#a)"><path d="M40.146 32.343l-5.336 5.716a1.2 1.2 0 01-.9.396H8.627a.651.651 0 01-.341-.101.715.715 0 01-.233-.272.672.672 0 01-.046-.349.615.615 0 01.155-.318l5.328-5.716c.117-.124.256-.225.411-.287.155-.07.326-.1.497-.1H39.68c.124 0 .24.03.341.092a.61.61 0 01.233.272.69.69 0 01.046.357.654.654 0 01-.155.31zM34.81 20.818a1.16 1.16 0 00-.41-.287 1.2 1.2 0 00-.49-.101H8.627a.65.65 0 00-.341.1.715.715 0 00-.233.272.676.676 0 00-.046.35.68.68 0 00.155.317l5.328 5.724c.117.124.256.225.411.287.155.07.326.1.489.1h25.284a.65.65 0 00.341-.1.63.63 0 00.225-.272.597.597 0 00.04-.349.682.682 0 00-.156-.318l-5.313-5.723zM8.626 16.715h25.285c.17 0 .333-.04.488-.101.155-.07.295-.17.411-.295l5.336-5.716a.626.626 0 00.163-.318.575.575 0 00-.046-.357.653.653 0 00-.233-.271.597.597 0 00-.341-.093H14.404c-.17 0-.333.039-.496.1a1.29 1.29 0 00-.411.295l-5.328 5.716a.56.56 0 00-.155.318.602.602 0 00.046.35.602.602 0 00.233.27c.093.063.21.102.333.102z" fill="#838383"/></g></svg>