<svg width="48" height="48" fill="none" xmlns="http://www.w3.org/2000/svg"><mask id="a" style="mask-type:alpha" maskUnits="userSpaceOnUse" x="0" y="0" width="48" height="48"><rect width="48" height="48" rx="5" fill="#1E1E1E"/></mask><g mask="url(#a)"><path d="M24.354 39c8.48 0 15.354-6.716 15.354-15 0-8.284-6.874-15-15.354-15S9 15.716 9 24c0 8.284 6.874 15 15.354 15z" fill="#838383"/><path d="M25.634 24.623v-.003c-.104.008-.64.039-1.83.039-.953 0-1.621-.027-1.858-.038v.002c-3.663-.16-6.395-.794-6.395-1.554 0-.758 2.734-1.393 6.395-1.554v2.477c.239.017.926.058 1.874.058 1.138 0 1.707-.048 1.814-.058v-2.475c3.655.163 6.38.797 6.38 1.554 0 .758-2.727 1.391-6.38 1.554m0-3.364v-2.216h5.1v-3.379H16.848v3.379h5.1v2.216c-4.145.19-7.26 1.005-7.26 1.983 0 .978 3.118 1.794 7.26 1.986v7.103h3.688V25.23c4.138-.19 7.249-1.005 7.249-1.984 0-.976-3.11-1.793-7.25-1.983" fill="#000"/></g></svg>