<svg width="72" height="48" fill="none" xmlns="http://www.w3.org/2000/svg"><mask id="a" style="mask-type:alpha" maskUnits="userSpaceOnUse" x="0" y="0" width="72" height="48"><rect width="72" height="48" rx="5" fill="#1E1E1E"/></mask><g mask="url(#a)"><path fill-rule="evenodd" clip-rule="evenodd" d="M22 33.843h-4.846L13.52 18.328c-.173-.714-.539-1.345-1.078-1.642-1.344-.748-2.826-1.342-4.442-1.642v-.598h7.807c1.078 0 1.886.898 2.02 1.94l1.886 11.192 4.844-13.132h4.712l-7.268 19.397zm9.962.001h-4.577l3.77-19.397h4.576l-3.769 19.397zm9.692-14.023c.134-1.045.942-1.642 1.885-1.642 1.482-.15 3.096.15 4.443.895l.808-4.177A10.513 10.513 0 0044.617 14c-4.443 0-7.675 2.687-7.675 6.416 0 2.836 2.29 4.326 3.906 5.223 1.748.895 2.422 1.492 2.287 2.387 0 1.342-1.347 1.94-2.691 1.94-1.617 0-3.233-.448-4.712-1.195l-.808 4.178c1.616.745 3.365 1.045 4.98 1.045 4.982.148 8.078-2.537 8.078-6.565 0-5.074-6.328-5.371-6.328-7.608zM64 33.844l-3.634-19.397h-3.904c-.808 0-1.616.598-1.886 1.492l-6.73 17.905h4.713l.94-2.834h5.79l.538 2.834H64zm-6.864-14.172l1.344 7.31h-3.769l2.425-7.31z" fill="#838383"/></g></svg>